<svg width="24.000000" height="24.000000" viewBox="0 0 24 24" fill="none" xmlns="http://www.w3.org/2000/svg" xmlns:xlink="http://www.w3.org/1999/xlink">
	<desc>
			Created with Pixso.
	</desc>
	<defs/>
	<path id="Color" d="M1.5 3L22.5 3L22.5 21L1.5 21L1.5 3ZM2.5 4L2.5 20L21.5 20L21.5 4L2.5 4ZM10.7651 16L5.61719 16L5.61719 15.0859L7.67383 15.0859L7.67383 8.01465L5.56641 8.64307L5.56641 7.65283L8.71484 6.69434L8.71484 15.0859L10.7651 15.0859L10.7651 16ZM17.4365 7.98926L17.4365 7.00537C17.0641 6.83185 16.5605 6.74512 15.9258 6.74512C14.8086 6.74512 13.9094 7.22119 13.228 8.17334C12.5467 9.12549 12.2061 10.3992 12.2061 11.9946C12.2061 13.3107 12.4663 14.3327 12.9868 15.0605C13.5073 15.7884 14.2246 16.1523 15.1387 16.1523C15.9681 16.1523 16.6516 15.8699 17.189 15.3049C17.7264 14.74 17.9951 14.011 17.9951 13.1182C17.9951 12.2634 17.7603 11.581 17.2905 11.071C16.8208 10.5611 16.1882 10.3062 15.3926 10.3062C14.4277 10.3062 13.7337 10.7357 13.3105 11.5947L13.2852 11.5947C13.2852 10.3887 13.5274 9.42596 14.012 8.70654C14.4965 7.98712 15.1429 7.62744 15.9512 7.62744C16.4717 7.62744 16.9668 7.74805 17.4365 7.98926ZM13.8564 11.7344C14.1907 11.3704 14.6266 11.1885 15.1641 11.1885C15.7227 11.1885 16.1564 11.3704 16.4653 11.7344C16.7742 12.0983 16.9287 12.6019 16.9287 13.2451C16.9287 13.8333 16.7679 14.3189 16.4463 14.7019C16.1247 15.0849 15.7015 15.2764 15.1768 15.2764C14.6266 15.2764 14.1855 15.0563 13.8533 14.6162C13.5211 14.1761 13.355 13.645 13.355 13.0229C13.355 12.5278 13.5222 12.0983 13.8564 11.7344Z" clip-rule="evenodd" fill-rule="evenodd" fill="currentColor" fill-opacity="1.000000"/>
</svg>
