<?xml version="1.0" encoding="UTF-8"?>
<svg width="21px" height="18px" viewBox="0 0 21 18" version="1.1" xmlns="http://www.w3.org/2000/svg" xmlns:xlink="http://www.w3.org/1999/xlink">
    <title>16X16</title>
    <g id="图标" stroke="none" stroke-width="1" fill="none" fill-rule="evenodd">
        <g id="16X16" fill="currentColor">
            <path d="M21,0 L21,18 L0,18 L0,0 L21,0 Z M20,1 L1,1 L1,17 L20,17 L20,1 Z M15.9953125,3.92382812 L15.9953125,4.9375 L12.596875,4.9375 L12.596875,7.50390625 L12.7907031,7.49335937 C13.0357031,7.48085937 13.2269531,7.47460938 13.3644531,7.47460938 C14.3214844,7.47460938 15.0675781,7.71679688 15.6027344,8.20117188 C16.1378906,8.68554688 16.4054687,9.35351562 16.4054687,10.2050781 C16.4054687,11.0839844 16.1183594,11.7949219 15.5441406,12.3378906 C14.9699219,12.8808594 14.1769531,13.1523438 13.1652344,13.1523438 C12.3175781,13.1523438 11.6789062,13.0273438 11.2492187,12.7773438 L11.2492187,12.7773438 L11.2492187,11.6054688 L11.4532841,11.7309028 C11.9999662,12.0457176 12.5667101,12.203125 13.1535156,12.203125 C13.7785156,12.203125 14.2824219,12.0283203 14.6652344,11.6787109 C15.0480469,11.3291016 15.2394531,10.8652344 15.2394531,10.2871094 C15.2394531,9.70507812 15.0451172,9.25390625 14.6564453,8.93359375 C14.2677734,8.61328125 13.7042969,8.453125 12.9660156,8.453125 C12.6105469,8.453125 12.1320312,8.48046875 11.5304687,8.53515625 L11.5304687,8.53515625 L11.5304687,3.92382812 L15.9953125,3.92382812 Z M6.98007812,3.77148438 C7.79648437,3.77148438 8.44101562,3.9921875 8.91367187,4.43359375 C9.38632812,4.875 9.62265625,5.46875 9.62265625,6.21484375 C9.62265625,6.77734375 9.47128906,7.32910156 9.16855469,7.87011719 C8.86582031,8.41113281 8.29257812,9.09960938 7.44882812,9.93554688 L7.44882812,9.93554688 L5.38046875,11.9570312 L5.38046875,11.9804688 L9.540625,11.9804688 L9.540625,13 L4.02109375,13 L4.02109375,12.0039062 L6.6578125,9.37304688 L6.86857422,9.15961914 C7.47923828,8.53295898 7.8953125,8.02890625 8.11679687,7.64746094 C8.36289062,7.22363281 8.4859375,6.78515625 8.4859375,6.33203125 C8.4859375,5.81640625 8.34140625,5.42089844 8.05234375,5.14550781 C7.76328125,4.87011719 7.3453125,4.73242188 6.7984375,4.73242188 C5.98984375,4.73242188 5.21835937,5.07617188 4.48398437,5.76367188 L4.48398437,5.76367188 L4.48398437,4.59765625 L4.68184724,4.45427105 C5.35107503,3.99907993 6.11715199,3.77148438 6.98007812,3.77148438 Z" id="形状结合"></path>
        </g>
    </g>
</svg>
