<svg width="36px" height="36px" viewBox="0 0 24 24" fill="none" xmlns="http://www.w3.org/2000/svg" xmlns:xlink="http://www.w3.org/1999/xlink" opacity="1">
	<desc>
			Created with Pixso.
	</desc>
	<defs/>
	<path id="合并" d="M17.0004 10.5007C17.0004 6.91089 14.0902 4.00073 10.5004 4.00073C6.91055 4.00073 4.0004 6.91089 4.0004 10.5007C4.0004 14.0906 6.91055 17.0007 10.5004 17.0007C12.1153 17.0007 13.5927 16.4119 14.7295 15.437L18.7933 19.5007C18.9886 19.696 19.3051 19.696 19.5004 19.5007C19.6957 19.3054 19.6957 18.9888 19.5004 18.7937L15.4366 14.7297C16.4114 13.593 17.0004 12.1157 17.0004 10.5007ZM10.5 5C7.46246 5 5.00003 7.4624 5.00003 10.5C5.00003 13.5376 7.46246 16 10.5 16C13.5376 16 16 13.5376 16 10.5C16 7.4624 13.5376 5 10.5 5ZM10 9C10 8.44775 9.55231 8 9.00003 8L6.50003 8C6.22388 8 6.00003 8.22388 6.00003 8.5L6.00003 9L9.00003 9L9.00003 10L6.00003 10L6.00003 11L9.00003 11L9.00003 12L6.00003 12L6.00003 12.5C6.00003 12.7761 6.22388 13 6.50003 13L9.00003 13C9.55231 13 10 12.5522 10 12L10 9ZM15 10C15 8.89551 14.1046 8 13 8L11 8L11 13L13 13C14.1046 13 15 12.1045 15 11L15 10ZM12 9L13 9C13.5523 9 14 9.44775 14 10L14 11C14 11.5522 13.5523 12 13 12L12 12L12 9Z" clip-rule="evenodd" fill-rule="evenodd" fill="currentColor" fill-opacity="1.000000"/>
</svg>
