<svg width="24.000000" height="24.000000" viewBox="0 0 24 24" fill="none" xmlns="http://www.w3.org/2000/svg" xmlns:xlink="http://www.w3.org/1999/xlink">
	<desc>
			Created with Pixso.
	</desc>
	<defs/>
	<path id="Color" d="M1.5 3L22.5 3L22.5 21L1.5 21L1.5 3ZM2.5 4L2.5 20L21.5 20L21.5 4L2.5 4ZM3.5 5L11.5 5L11.5 11L3.5 11L3.5 5ZM20.5 5L12.5 5L12.5 11L20.5 11L20.5 5ZM11.5 12L3.5 12L3.5 19L11.5 19L11.5 12ZM12.5 12L20.5 12L20.5 19L12.5 19L12.5 12Z" clip-rule="evenodd" fill-rule="evenodd" fill="currentColor" fill-opacity="1.000000"/>
</svg>
