<svg width="42.000000" height="42.000000" viewBox="0 0 42 42" fill="none" xmlns="http://www.w3.org/2000/svg" xmlns:xlink="http://www.w3.org/1999/xlink">
	<desc>
			Created with Pixso.
	</desc>
	<defs/>
	<rect id="Rectangle-2-Copy" x="3.000000" y="3.000000" width="36.000000" height="36.000000" fill="currentColor" fill-opacity="1.000000"/>
	<rect id="Rectangle-2" x="0.500000" y="0.500000" width="41.000000" height="41.000000" stroke="currentColor" stroke-opacity="1.000000" stroke-width="1.000000"/>
	<path id="1" d="M17.11 19.09L17.11 17.75C18.38 17.62 19.26 17.41 19.77 17.12C20.27 16.84 20.64 16.15 20.89 15.07L22.28 15.07L22.28 29L20.4 29L20.4 19.09L17.11 19.09Z" fill="#000000" fill-opacity="1.000000" fill-rule="evenodd"/>
	<path id="1" d="M17.11 19.09L17.11 17.75C18.38 17.62 19.26 17.41 19.77 17.12C20.27 16.84 20.64 16.15 20.89 15.07L22.28 15.07L22.28 29L20.4 29L20.4 19.09L17.11 19.09Z" fill="#333333" fill-opacity="1.000000" fill-rule="evenodd"/>
</svg>
