<svg width="42.000000" height="42.000000" viewBox="0 0 42 42" fill="none" xmlns="http://www.w3.org/2000/svg" xmlns:xlink="http://www.w3.org/1999/xlink">
	<desc>
			Created with Pixso.
	</desc>
	<defs/>
	<rect id="Rectangle-2-Copy-40" x="0.500000" y="0.500000" width="41.000000" height="41.000000" stroke="currentColor" stroke-opacity="1.000000" stroke-width="1.000000"/>
	<path id="Combined-Shape" d="M21.8572 29.5714L21.8572 21.8572L29.5715 21.8572L29.5715 29.5714L21.8572 29.5714ZM21.8572 31.2858L29.5715 31.2858L29.5715 39L21.8572 39L21.8572 31.2858ZM39 29.5714L31.2856 29.5714L31.2856 21.8572L39 21.8572L39 29.5714ZM39 31.2858L39 39L31.2856 39L31.2856 31.2858L39 31.2858ZM12.4285 29.5714L12.4285 21.8572L20.1428 21.8572L20.1428 29.5714L12.4285 29.5714ZM12.4285 31.2858L20.1428 31.2858L20.1428 39L12.4285 39L12.4285 31.2858ZM3 29.5714L3 21.8572L10.7144 21.8572L10.7144 29.5714L3 29.5714ZM3 31.2858L10.7144 31.2858L10.7144 39L3 39L3 31.2858ZM21.8572 20.1428L21.8572 12.4286L29.5715 12.4286L29.5715 20.1428L21.8572 20.1428ZM39 20.1428L31.2856 20.1428L31.2856 12.4286L39 12.4286L39 20.1428ZM12.4285 20.1428L12.4285 12.4286L20.1428 12.4286L20.1428 20.1428L12.4285 20.1428ZM3 20.1428L3 12.4286L10.7144 12.4286L10.7144 20.1428L3 20.1428ZM21.8572 10.7142L21.8572 3L29.5715 3L29.5715 10.7142L21.8572 10.7142ZM39 10.7142L31.2856 10.7142L31.2856 3L39 3L39 10.7142ZM12.4285 10.7142L12.4285 3L20.1428 3L20.1428 10.7142L12.4285 10.7142ZM3 10.7142L3 3L10.7144 3L10.7144 10.7142L3 10.7142Z" clip-rule="evenodd" fill="currentColor" fill-opacity="1.000000" fill-rule="evenodd"/>
	<path id="16" d="M26.3726 14.957C27.9351 14.957 29.0239 15.3623 29.6392 16.1729C30.2544 16.9834 30.562 17.8184 30.562 18.6777L28.8237 18.6777C28.7195 18.1244 28.5535 17.6914 28.3257 17.3789C27.9026 16.793 27.2612 16.5 26.4019 16.5C25.4187 16.5 24.6375 16.9541 24.0581 17.8623C23.4788 18.7705 23.1565 20.0709 23.0913 21.7637C23.4949 21.1713 24.0027 20.7285 24.6147 20.4355C25.1746 20.1752 25.7996 20.0449 26.4897 20.0449C27.6616 20.0449 28.6838 20.4193 29.5562 21.168C30.4285 21.9166 30.8647 23.0332 30.8647 24.5176C30.8647 25.7871 30.4514 26.9117 29.6245 27.8916C28.7976 28.8715 27.6194 29.3613 26.0894 29.3613C24.7808 29.3613 23.6511 28.8649 22.7007 27.8721C21.7502 26.8793 21.2749 25.2076 21.2749 22.8574C21.2749 21.1191 21.4866 19.6445 21.9097 18.4336C22.7234 16.1158 24.2112 14.957 26.3726 14.957ZM11.314 17.75L11.314 19.0977L14.605 19.0977L14.605 29L16.48 29L16.48 15.0742L15.0933 15.0742C14.8459 16.1549 14.4714 16.8402 13.9702 17.1299C13.469 17.4196 12.5835 17.6263 11.314 17.75ZM28.3208 26.8662C27.8618 27.4879 27.1702 27.7988 26.2456 27.7988C25.3276 27.7988 24.6099 27.4977 24.0923 26.8955C23.5747 26.2933 23.3159 25.5494 23.3159 24.6641C23.3159 23.6549 23.6008 22.8998 24.1704 22.3984C24.74 21.8971 25.4026 21.6465 26.1577 21.6465C27.2385 21.6465 27.9839 21.9703 28.394 22.6182C28.8042 23.266 29.0093 23.9479 29.0093 24.6641C29.0093 25.5104 28.7798 26.2445 28.3208 26.8662Z" clip-rule="evenodd" fill="#000000" fill-opacity="1.000000" fill-rule="evenodd"/>
	<path id="16" d="M26.3726 14.957C27.9351 14.957 29.0239 15.3623 29.6392 16.1729C30.2544 16.9834 30.562 17.8184 30.562 18.6777L28.8237 18.6777C28.7195 18.1244 28.5535 17.6914 28.3257 17.3789C27.9026 16.793 27.2612 16.5 26.4019 16.5C25.4187 16.5 24.6375 16.9541 24.0581 17.8623C23.4788 18.7705 23.1565 20.0709 23.0913 21.7637C23.4949 21.1713 24.0027 20.7285 24.6147 20.4355C25.1746 20.1752 25.7996 20.0449 26.4897 20.0449C27.6616 20.0449 28.6838 20.4193 29.5562 21.168C30.4285 21.9166 30.8647 23.0332 30.8647 24.5176C30.8647 25.7871 30.4514 26.9117 29.6245 27.8916C28.7976 28.8715 27.6194 29.3613 26.0894 29.3613C24.7808 29.3613 23.6511 28.8649 22.7007 27.8721C21.7502 26.8793 21.2749 25.2076 21.2749 22.8574C21.2749 21.1191 21.4866 19.6445 21.9097 18.4336C22.7234 16.1158 24.2112 14.957 26.3726 14.957ZM11.314 17.75L11.314 19.0977L14.605 19.0977L14.605 29L16.48 29L16.48 15.0742L15.0933 15.0742C14.8459 16.1549 14.4714 16.8402 13.9702 17.1299C13.469 17.4196 12.5835 17.6263 11.314 17.75ZM28.3208 26.8662C27.8618 27.4879 27.1702 27.7988 26.2456 27.7988C25.3276 27.7988 24.6099 27.4977 24.0923 26.8955C23.5747 26.2933 23.3159 25.5494 23.3159 24.6641C23.3159 23.6549 23.6008 22.8998 24.1704 22.3984C24.74 21.8971 25.4026 21.6465 26.1577 21.6465C27.2385 21.6465 27.9839 21.9703 28.394 22.6182C28.8042 23.266 29.0093 23.9479 29.0093 24.6641C29.0093 25.5104 28.7798 26.2445 28.3208 26.8662Z" clip-rule="evenodd" fill="#333333" fill-opacity="1.000000" fill-rule="evenodd"/>
</svg>
