<svg width="24.000000" height="24.000000" viewBox="0 0 24 24" fill="none" xmlns="http://www.w3.org/2000/svg" xmlns:xlink="http://www.w3.org/1999/xlink">
	<desc>
			Created with Pixso.
	</desc>
	<defs>
		<clipPath id="clip2895_11448">
			<rect id="算法申请" width="24.000000" height="24.000000" fill="currentColor" fill-opacity="0"/>
		</clipPath>
	</defs>
	<g clip-path="url(#clip2895_11448)">
		<path id="path" d="M15.5 11C17.98 11 20 13.01 20 15.5C20 17.98 17.98 20 15.5 20C13.01 20 11 17.98 11 15.5C11 13.01 13.01 11 15.5 11ZM12.5 4.13L18.49 7.62C18.8 7.8 19 8.14 19 8.5L19 11.25C18.68 11 18.35 10.77 17.98 10.59L17.99 8.5L12 5.01L6 8.5L6 15.49L10.73 18.24C11.12 18.91 11.65 19.5 12.27 19.95C12.01 20.03 11.73 20 11.49 19.86L5.5 16.37C5.19 16.19 5 15.85 5 15.49L5 8.5C5 8.14 5.19 7.8 5.5 7.62L11.49 4.13C11.8 3.95 12.19 3.95 12.5 4.13ZM15.5 12C13.56 12 12 13.56 12 15.5C12 17.43 13.56 19 15.5 19C17.43 19 19 17.43 19 15.5C19 13.56 17.43 12 15.5 12ZM15.5 13C15.77 13 16 13.22 16 13.5L16 15L17.5 15C17.77 15 18 15.22 18 15.5C18 15.77 17.77 16 17.5 16L16 16L16 17.5C16 17.77 15.77 18 15.5 18C15.22 18 15 17.77 15 17.5L15 16L13.5 16C13.22 16 13 15.77 13 15.5C13 15.22 13.22 15 13.5 15L15 15L15 13.5C15 13.22 15.22 13 15.5 13ZM12 7.5C12.82 7.5 13.5 8.17 13.5 9C13.5 9.34 13.38 9.66 13.18 9.92L13.45 10.39C13.15 10.51 12.85 10.66 12.57 10.83L12.35 10.45C12.24 10.48 12.12 10.5 12 10.5C11.92 10.5 11.84 10.49 11.76 10.48L10.21 13.12C10.29 13.22 10.34 13.33 10.39 13.45C10.18 13.96 10.05 14.52 10.01 15.1C9.74 15.35 9.39 15.5 9 15.5C8.17 15.5 7.5 14.82 7.5 14C7.5 13.17 8.17 12.5 9 12.5C9.14 12.5 9.27 12.51 9.4 12.55L10.89 10.01C10.65 9.74 10.5 9.39 10.5 9C10.5 8.17 11.17 7.5 12 7.5ZM9 13.5C8.72 13.5 8.5 13.72 8.5 14C8.5 14.27 8.72 14.5 9 14.5C9.27 14.5 9.5 14.27 9.5 14C9.5 13.72 9.27 13.5 9 13.5ZM12 8.5C11.72 8.5 11.5 8.72 11.5 9C11.5 9.27 11.72 9.5 12 9.5C12.27 9.5 12.5 9.27 12.5 9C12.5 8.72 12.27 8.5 12 8.5Z" fill="currentColor" fill-opacity="0.700000" fill-rule="nonzero"/>
	</g>
</svg>
