<svg width="200px" height="200px" viewBox="0 0 24 24" fill="none" xmlns="http://www.w3.org/2000/svg" xmlns:xlink="http://www.w3.org/1999/xlink">
	<desc>
			Created with Pixso.
	</desc>
	<defs>
		<clipPath id="clip158_6051">
			<rect id="摄像机" width="24.000000" height="24.000000" fill="#262626"/>
		</clipPath>
	</defs>
	<g clip-path="url(#clip158_6051)">
		<path id="Mask" d="M9.042 6L19.042 6C19.594 6 20 6.448 20 7L20 16C20 16.552 19.594 17 19.042 17L9.042 17C8.489 17 8 16.552 8 16L8 14.033L4.703 15.375C4.643 15.4 4.595 15.412 4.531 15.412C4.433 15.412 4.325 15.383 4.241 15.327C4.104 15.234 4 15.079 4 14.912L4 8.412C4 8.245 4.094 8.089 4.232 7.99699C4.372 7.903 4.559 7.88699 4.712 7.95L8 9.321L8 7C8 6.448 8.489 6 9.042 6ZM9 7L9 16L19 16L19 7L9 7ZM17.042 8L17.042 9L18.042 9L18.042 8L17.042 8ZM5 14.17L5 9.16103L8 10.403L8 12.954L5 14.17Z" clip-rule="evenodd" fill-rule="evenodd" fill="currentColor" fill-opacity="1"/>
	</g>
</svg>
