<svg width="24.000000" height="24.000000" viewBox="0 0 24 24" fill="none" xmlns="http://www.w3.org/2000/svg" xmlns:xlink="http://www.w3.org/1999/xlink">
	<desc>
			Created with Pixso.
	</desc>
	<defs/>
	<g opacity="0.000000">
		<rect id="矩形" width="24.000000" height="24.000000" fill="#D8D8D8" fill-opacity="1.000000"/>
		<rect id="矩形" width="24.000000" height="24.000000" stroke="#979797" stroke-opacity="0" stroke-width="1.333333"/>
	</g>
	<path id="形状结合" d="M14.3245 6.84619L16.1875 6.84619C16.6362 6.84619 17 7.25952 17 7.76929L17 16.0769C17 16.5867 16.6362 17 16.1875 17L4.8125 17C4.36377 17 4 16.5867 4 16.0769L4 7.76929C4 7.25952 4.36377 6.84619 4.8125 6.84619L6.67554 6.84619L8.1814 5.13525C8.25793 5.04932 8.36108 5.00073 8.46875 5L12.5312 5C12.639 5.00073 12.7422 5.04932 12.8187 5.1355L14.3245 6.84619ZM5 16L5 7.81812L6.96429 7.81812C7.06848 7.81836 7.16846 7.77051 7.24207 7.68506L8.69836 6L12.3016 6L13.758 7.68506C13.8315 7.77051 13.9315 7.81836 14.0357 7.81812L16 7.81812L16 16L5 16ZM10.5 8C8.56702 8 7 9.56689 7 11.5C7 13.4331 8.56702 15 10.5 15C12.433 15 14 13.4331 14 11.5C14 10.5718 13.6312 9.6814 12.9749 9.02515C12.3185 8.36865 11.4283 8 10.5 8ZM10.5 14C9.11926 14 8 12.8806 8 11.5C8 10.1194 9.11926 9 10.5 9C11.8807 9 13 10.1194 13 11.5C13 12.1631 12.7366 12.7988 12.2678 13.2678C11.799 13.7366 11.163 14 10.5 14ZM18.9919 10.4102C18.9496 10.1768 18.7455 10 18.5 10C18.2239 10 18 10.2239 18 10.5L18 16.5L17.9932 16.6445C17.9205 17.405 17.2797 18 16.5 18L7.5 18L7.4101 18.0081C7.17688 18.0503 7 18.2546 7 18.5C7 18.7761 7.22388 19 7.5 19L16.5 19L16.6644 18.9946C17.9684 18.9102 19 17.8254 19 16.5L19 10.5L18.9919 10.4102ZM10.5 10C10.7761 10 11 10.2239 11 10.5C11 10.7454 10.8231 10.9497 10.5899 10.9919L10.5 11C10.2545 11 10.0504 11.1768 10.0081 11.4102L10 11.5C10 11.7761 9.77612 12 9.5 12C9.22388 12 9 11.7761 9 11.5C9 10.6716 9.67157 10 10.5 10Z" clip-rule="evenodd" fill="currentColor" fill-opacity="1" fill-rule="evenodd"/>
</svg>
