<svg width="24.000000" height="24.000000" viewBox="0 0 24 24" fill="none" xmlns="http://www.w3.org/2000/svg" xmlns:xlink="http://www.w3.org/1999/xlink">
	<desc>
			Created with Pixso.
	</desc>
	<defs/>
	<path id="icon" d="M12 4.5C16.1418 4.5 19.5 7.85815 19.5 12C19.5 16.1418 16.1418 19.5 12 19.5C7.85815 19.5 4.5 16.1418 4.5 12C4.5 7.85815 7.85815 4.5 12 4.5ZM12 18.5C15.5843 18.5 18.5 15.5842 18.5 12C18.5 8.41577 15.5843 5.5 12 5.5C8.41571 5.5 5.5 8.41577 5.5 12C5.5 15.5842 8.41571 18.5 12 18.5ZM15.5 12C15.5 11.725 15.275 11.5 15 11.5L12.5 11.5L12.5 8C12.5 7.72498 12.275 7.5 12 7.5C11.725 7.5 11.5 7.72498 11.5 8L11.5 12C11.5 12.275 11.725 12.5 12 12.5L15 12.5C15.275 12.5 15.5 12.275 15.5 12Z" clip-rule="evenodd" fill-rule="evenodd" fill="currentColor" fill-opacity="1"/>
</svg>
