<svg width="24.000000" height="24.000000" viewBox="0 0 24 24" fill="none" xmlns="http://www.w3.org/2000/svg" xmlns:xlink="http://www.w3.org/1999/xlink">
	<desc>
			Created with Pixso.
	</desc>
	<defs/>
	<path id="icon" d="M12 11.2928L16.1465 7.14648C16.3417 6.95117 16.6583 6.95117 16.8535 7.14648C17.0488 7.34167 17.0488 7.65833 16.8535 7.85352L12.7071 12L16.8535 16.1465C17.0488 16.3417 17.0488 16.6583 16.8535 16.8535C16.6583 17.0488 16.3417 17.0488 16.1465 16.8535L12 12.7072L7.85355 16.8535C7.65829 17.0488 7.34171 17.0488 7.14645 16.8535C6.95117 16.6583 6.95117 16.3417 7.14645 16.1465L11.2929 12L7.14645 7.85352C6.95117 7.65833 6.95117 7.34167 7.14645 7.14648C7.34171 6.95117 7.65829 6.95117 7.85355 7.14648L12 11.2928Z" fill-rule="evenodd" fill="currentColor" fill-opacity="1"/>
</svg>
