<svg width="24.000000" height="24.000000" viewBox="0 0 24 24" fill="none" xmlns="http://www.w3.org/2000/svg" xmlns:xlink="http://www.w3.org/1999/xlink">
	<desc>
			Created with Pixso.
	</desc>
	<defs/>
	<path id="icon" d="M7 16.0007L9.97296 15.2837L17.594 7.65076C17.879 7.3667 18.025 6.95569 17.997 6.52075C17.97 6.1217 17.798 5.73376 17.524 5.46069C16.948 4.88269 15.888 4.83777 15.337 5.39075L7.71497 13.0237L7 16.0007ZM9.43292 14.3181L16.8409 6.89709C16.9089 6.8291 16.9429 6.71814 16.9349 6.59009C16.9249 6.44617 16.8639 6.30615 16.7719 6.21313C16.6719 6.11108 16.5119 6.04907 16.3579 6.04907C16.2919 6.04907 16.1709 6.06116 16.0889 6.14307L8.67889 13.5631L8.44092 14.5551L9.43292 14.3181ZM18.469 18C18.762 18 19 17.776 19 17.5C19 17.224 18.762 17 18.469 17L4.53101 17C4.23798 17 4 17.224 4 17.5C4 17.776 4.23798 18 4.53101 18L18.469 18Z" clip-rule="evenodd" fill-rule="evenodd" fill="currentColor" fill-opacity="1"/>
</svg>
