<svg width="24.000000" height="24.000000" viewBox="0 0 24 24" fill="none" xmlns="http://www.w3.org/2000/svg" xmlns:xlink="http://www.w3.org/1999/xlink">
	<desc>
			Created with Pixso.
	</desc>
	<defs/>
	<g style="mix-blend-mode:normal">
		<path id="icon" d="M14 4L10 4C9.44775 4 9 4.44775 9 5L9 7L15 7L15 5C15 4.44775 14.5522 4 14 4ZM10 5L14 5L14 6L10 6L10 5ZM5 19L5 7C5 6.44775 5.44775 6 6 6L8 6L8 7L6 7L6 19L18 19L18 7L16 7L16 6L18 6C18.5522 6 19 6.44775 19 7L19 19C19 19.5522 18.5522 20 18 20L6 20C5.44775 20 5 19.5522 5 19ZM15.5 9L8.5 9C8.22388 9 8 9.22363 8 9.5C8 9.77637 8.22388 10 8.5 10L15.5 10C15.7761 10 16 9.77637 16 9.5C16 9.22363 15.7761 9 15.5 9ZM8.5 12L15.5 12C15.7761 12 16 12.2236 16 12.5C16 12.7764 15.7761 13 15.5 13L8.5 13C8.22388 13 8 12.7764 8 12.5C8 12.2236 8.22388 12 8.5 12ZM12.5 15L8.5 15C8.22388 15 8 15.2236 8 15.5C8 15.7764 8.22388 16 8.5 16L12.5 16C12.7761 16 13 15.7764 13 15.5C13 15.2236 12.7761 15 12.5 15Z" clip-rule="evenodd" fill="currentColor" fill-opacity="1.000000" fill-rule="evenodd"/>
	</g>
</svg>
