<svg width="42.000000" height="42.000000" viewBox="0 0 42 42" fill="none" xmlns="http://www.w3.org/2000/svg" xmlns:xlink="http://www.w3.org/1999/xlink">
	<desc>
			Created with Pixso.
	</desc>
	<defs/>
	<rect id="Rectangle-2-Copy-53" x="0.500000" y="0.500000" width="41.000000" height="41.000000" stroke="currentColor" stroke-opacity="1.000000" stroke-width="1.000000"/>
	<path id="Combined-Shape" d="M29.7143 3L21.8571 3L21.8571 20.1429L29.7143 20.1429L29.7143 3ZM31.4286 3L39 3L39 20.1429L31.4286 20.1429L31.4286 3ZM3 3L20.1429 3L20.1429 39L3 39L3 3ZM21.8571 39L29.7143 39L29.7143 21.8572L21.8571 21.8572L21.8571 39ZM31.4286 39L39 39L39 21.8572L31.4286 21.8572L31.4286 39Z" clip-rule="evenodd" fill="currentColor" fill-opacity="1.000000" fill-rule="evenodd"/>
	<path id="5" d="M17.67 25.43C17.78 26.43 18.25 27.13 19.06 27.51C19.48 27.71 19.96 27.8 20.51 27.8C21.55 27.8 22.32 27.47 22.82 26.81C23.32 26.14 23.57 25.41 23.57 24.6C23.57 23.62 23.28 22.87 22.68 22.33C22.08 21.8 21.37 21.53 20.54 21.53C19.93 21.53 19.41 21.65 18.98 21.89C18.55 22.12 18.18 22.45 17.87 22.86L16.35 22.77L17.41 15.25L24.68 15.25L24.68 16.94L18.73 16.94L18.13 20.83C18.46 20.58 18.77 20.4 19.06 20.27C19.58 20.06 20.19 19.95 20.87 19.95C22.15 19.95 23.24 20.37 24.13 21.19C25.02 22.02 25.47 23.07 25.47 24.34C25.47 25.66 25.06 26.82 24.24 27.83C23.43 28.84 22.12 29.35 20.33 29.35C19.19 29.35 18.18 29.03 17.31 28.38C16.43 27.74 15.94 26.76 15.84 25.43L17.67 25.43Z" fill="#000000" fill-opacity="1.000000" fill-rule="evenodd"/>
	<path id="5" d="M17.67 25.43C17.78 26.43 18.25 27.13 19.06 27.51C19.48 27.71 19.96 27.8 20.51 27.8C21.55 27.8 22.32 27.47 22.82 26.81C23.32 26.14 23.57 25.41 23.57 24.6C23.57 23.62 23.28 22.87 22.68 22.33C22.08 21.8 21.37 21.53 20.54 21.53C19.93 21.53 19.41 21.65 18.98 21.89C18.55 22.12 18.18 22.45 17.87 22.86L16.35 22.77L17.41 15.25L24.68 15.25L24.68 16.94L18.73 16.94L18.13 20.83C18.46 20.58 18.77 20.4 19.06 20.27C19.58 20.06 20.19 19.95 20.87 19.95C22.15 19.95 23.24 20.37 24.13 21.19C25.02 22.02 25.47 23.07 25.47 24.34C25.47 25.66 25.06 26.82 24.24 27.83C23.43 28.84 22.12 29.35 20.33 29.35C19.19 29.35 18.18 29.03 17.31 28.38C16.43 27.74 15.94 26.76 15.84 25.43L17.67 25.43Z" fill="#333333" fill-opacity="1.000000" fill-rule="evenodd"/>
</svg>
