<svg width="42.000000" height="42.000000" viewBox="0 0 42 42" fill="none" xmlns="http://www.w3.org/2000/svg" xmlns:xlink="http://www.w3.org/1999/xlink">
	<desc>
			Created with Pixso.
	</desc>
	<defs/>
	<rect id="Rectangle-2-Copy-51" x="0.500000" y="0.500000" width="41.000000" height="41.000000" stroke="currentColor" stroke-opacity="1.000000" stroke-width="1.000000"/>
	<path id="Combined-Shape" d="M3 3L20.1429 3L20.1429 39L3 39L3 3ZM39 3L21.8572 3L21.8572 39L39 39L39 3Z" clip-rule="evenodd" fill="currentColor" fill-opacity="1.000000" fill-rule="evenodd"/>
	<path id="2" d="M15.82 29C15.89 27.79 16.13 26.74 16.57 25.85C17 24.96 17.84 24.15 19.1 23.42L20.98 22.33C21.82 21.85 22.41 21.43 22.74 21.08C23.28 20.54 23.54 19.93 23.54 19.23C23.54 18.42 23.3 17.77 22.81 17.29C22.32 16.81 21.67 16.57 20.86 16.57C19.65 16.57 18.82 17.03 18.36 17.94C18.11 18.43 17.98 19.11 17.95 19.97L16.16 19.97C16.18 18.75 16.41 17.76 16.84 16.99C17.6 15.64 18.94 14.96 20.87 14.96C22.47 14.96 23.64 15.39 24.38 16.26C25.12 17.13 25.49 18.09 25.49 19.15C25.49 20.27 25.09 21.23 24.31 22.02C23.85 22.48 23.03 23.04 21.86 23.7L20.52 24.44C19.88 24.8 19.38 25.13 19.01 25.45C18.36 26.02 17.95 26.64 17.78 27.33L25.42 27.33L25.42 29L15.82 29Z" fill="#000000" fill-opacity="1.000000" fill-rule="evenodd"/>
	<path id="2" d="M15.82 29C15.89 27.79 16.13 26.74 16.57 25.85C17 24.96 17.84 24.15 19.1 23.42L20.98 22.33C21.82 21.85 22.41 21.43 22.74 21.08C23.28 20.54 23.54 19.93 23.54 19.23C23.54 18.42 23.3 17.77 22.81 17.29C22.32 16.81 21.67 16.57 20.86 16.57C19.65 16.57 18.82 17.03 18.36 17.94C18.11 18.43 17.98 19.11 17.95 19.97L16.16 19.97C16.18 18.75 16.41 17.76 16.84 16.99C17.6 15.64 18.94 14.96 20.87 14.96C22.47 14.96 23.64 15.39 24.38 16.26C25.12 17.13 25.49 18.09 25.49 19.15C25.49 20.27 25.09 21.23 24.31 22.02C23.85 22.48 23.03 23.04 21.86 23.7L20.52 24.44C19.88 24.8 19.38 25.13 19.01 25.45C18.36 26.02 17.95 26.64 17.78 27.33L25.42 27.33L25.42 29L15.82 29Z" fill="#333333" fill-opacity="1.000000" fill-rule="evenodd"/>
</svg>
