<svg width="42.000000" height="42.000000" viewBox="0 0 42 42" fill="none" xmlns="http://www.w3.org/2000/svg" xmlns:xlink="http://www.w3.org/1999/xlink">
	<desc>
			Created with Pixso.
	</desc>
	<defs/>
	<rect id="Rectangle-2-Copy-54" x="0.500000" y="0.500000" width="41.000000" height="41.000000" stroke="currentColor" stroke-opacity="1.000000" stroke-width="1.000000"/>
	<path id="Combined-Shape" d="M3 20.1429L3 3L13.8571 3L13.8571 20.1429L3 20.1429ZM15.5714 3L15.5714 20.1429L26.4286 20.1429L26.4286 3L15.5714 3ZM39 20.1429L39 3L28.1429 3L28.1429 20.1429L39 20.1429ZM3 39L3 21.8572L13.8571 21.8572L13.8571 39L3 39ZM15.5714 39L15.5714 21.8572L26.4286 21.8572L26.4286 39L15.5714 39ZM39 39L39 21.8572L28.1429 21.8572L28.1429 39L39 39Z" clip-rule="evenodd" fill="currentColor" fill-opacity="1.000000" fill-rule="evenodd"/>
	<path id="6" d="M21.0496 14.957C22.6121 14.957 23.701 15.3623 24.3162 16.1729C24.9315 16.9834 25.2391 17.8184 25.2391 18.6777L23.5008 18.6777C23.3966 18.1243 23.2306 17.6914 23.0027 17.3789C22.5796 16.793 21.9383 16.5 21.0789 16.5C20.0958 16.5 19.3146 16.9541 18.7352 17.8623C18.1557 18.7705 17.8335 20.071 17.7684 21.7637C18.172 21.1712 18.6798 20.7285 19.2918 20.4355C19.8517 20.1751 20.4767 20.0449 21.1668 20.0449C22.3387 20.0449 23.3608 20.4193 24.2332 21.168C25.1056 21.9167 25.5418 23.0332 25.5418 24.5176C25.5418 25.7871 25.1284 26.9118 24.3016 27.8916C23.4748 28.8714 22.2964 29.3613 20.7664 29.3613C19.4578 29.3613 18.3283 28.8649 17.3777 27.8721C16.4272 26.8792 15.952 25.2077 15.952 22.8574C15.952 21.1191 16.1635 19.6445 16.5867 18.4336C17.4005 16.1158 18.8882 14.957 21.0496 14.957ZM22.9979 26.8662C22.5389 27.488 21.8471 27.7988 20.9227 27.7988C20.0047 27.7988 19.2869 27.4977 18.7693 26.8955C18.2518 26.2933 17.993 25.5495 17.993 24.6641C17.993 23.655 18.2778 22.8997 18.8475 22.3984C19.4171 21.8972 20.0796 21.6465 20.8348 21.6465C21.9155 21.6465 22.6609 21.9704 23.0711 22.6182C23.4813 23.2659 23.6863 23.9479 23.6863 24.6641C23.6863 25.5104 23.4568 26.2444 22.9979 26.8662Z" clip-rule="evenodd" fill="#000000" fill-opacity="1.000000" fill-rule="evenodd"/>
	<path id="6" d="M21.0496 14.957C22.6121 14.957 23.701 15.3623 24.3162 16.1729C24.9315 16.9834 25.2391 17.8184 25.2391 18.6777L23.5008 18.6777C23.3966 18.1243 23.2306 17.6914 23.0027 17.3789C22.5796 16.793 21.9383 16.5 21.0789 16.5C20.0958 16.5 19.3146 16.9541 18.7352 17.8623C18.1557 18.7705 17.8335 20.071 17.7684 21.7637C18.172 21.1712 18.6798 20.7285 19.2918 20.4355C19.8517 20.1751 20.4767 20.0449 21.1668 20.0449C22.3387 20.0449 23.3608 20.4193 24.2332 21.168C25.1056 21.9167 25.5418 23.0332 25.5418 24.5176C25.5418 25.7871 25.1284 26.9118 24.3016 27.8916C23.4748 28.8714 22.2964 29.3613 20.7664 29.3613C19.4578 29.3613 18.3283 28.8649 17.3777 27.8721C16.4272 26.8792 15.952 25.2077 15.952 22.8574C15.952 21.1191 16.1635 19.6445 16.5867 18.4336C17.4005 16.1158 18.8882 14.957 21.0496 14.957ZM22.9979 26.8662C22.5389 27.488 21.8471 27.7988 20.9227 27.7988C20.0047 27.7988 19.2869 27.4977 18.7693 26.8955C18.2518 26.2933 17.993 25.5495 17.993 24.6641C17.993 23.655 18.2778 22.8997 18.8475 22.3984C19.4171 21.8972 20.0796 21.6465 20.8348 21.6465C21.9155 21.6465 22.6609 21.9704 23.0711 22.6182C23.4813 23.2659 23.6863 23.9479 23.6863 24.6641C23.6863 25.5104 23.4568 26.2444 22.9979 26.8662Z" clip-rule="evenodd" fill="#333333" fill-opacity="1.000000" fill-rule="evenodd"/>
</svg>
