<svg width="24.000000" height="24.000000" viewBox="0 0 24 24" fill="none" xmlns="http://www.w3.org/2000/svg" xmlns:xlink="http://www.w3.org/1999/xlink">
	<desc>
			Created with Pixso.
	</desc>
	<defs/>
	<path id="icon" d="M19 11.5C19 7.39999 15.6 4 11.5 4C7.40002 4 4 7.39999 4 11.5C4 15.6 7.40002 19 11.5 19C15.6 19 19 15.6 19 11.5ZM5 11.5C5 7.89999 7.90002 5 11.5 5C15.1 5 18 7.89999 18 11.5C18 12.4 17.8 13.2 17.5 14C17.2 14.8 16.7 15.5 16.1 16.1C15.5 16.7 14.8 17.2 14 17.5C13.2 17.8 12.3 18 11.5 18C10.7 18 9.79999 17.8 9 17.5C8.20001 17.2 7.5 16.7 6.90002 16.1C6.29999 15.5 5.79999 14.8 5.5 14C5.20001 13.2 5 12.4 5 11.5ZM13.3 7.59988C12.9 7.19987 12.3 6.99988 11.6 6.99988C11.2 6.99988 10.894 7.07487 10.597 7.18188C10.353 7.26988 10.076 7.43488 9.78802 7.66388C9.50598 7.88889 9.29999 8.19987 9.20001 8.49988C9.09998 8.69987 9 9.19987 9.00012 9.6998C9.00006 9.70387 9 9.70795 9 9.71204C9 9.98817 9.22388 10.212 9.5 10.212L9.5899 10.204C9.82312 10.1617 10 9.95749 10 9.71204L9.99902 9.69987L10 9.69987C10 8.49988 10.58 7.94287 11.5 7.89987C11.9 7.88087 12.294 8.03787 12.518 8.28188C12.818 8.58188 12.9 8.89987 12.9 9.19987C12.9 9.49988 12.727 9.90288 12.596 10.0839C12.28 10.5189 11.655 11.1429 11.427 11.4639C10.9501 12.1389 10.9796 13.0267 10.9956 13.5104C10.998 13.5834 11.0001 13.6473 11.0001 13.6998C11.0001 13.7039 11 13.7079 11 13.712C11 13.9882 11.2239 14.212 11.5 14.212L11.5899 14.204C11.8231 14.1617 12 13.9575 12 13.712L11.999 13.6999L12 13.6999C12 13.6579 11.999 13.6098 11.9979 13.5568C11.9888 13.1053 11.9723 12.2896 12.486 11.6999C12.933 11.2759 13.7 10.2999 13.8 10.0999C13.9 9.89987 14 9.59988 14 9.29988C14 8.59988 13.8 8.09988 13.3 7.59988ZM12 15L12 16L11 16L11 15L12 15Z" clip-rule="evenodd" fill-rule="evenodd" fill="currentColor" fill-opacity="1"/>
</svg>
