<svg width="42.000000" height="42.000000" viewBox="0 0 42 42" fill="none" xmlns="http://www.w3.org/2000/svg" xmlns:xlink="http://www.w3.org/1999/xlink">
	<desc>
			Created with Pixso.
	</desc>
	<defs/>
	<rect id="Rectangle-2-Copy-49" x="0.500000" y="0.500000" width="41.000000" height="41.000000" stroke="currentColor" stroke-opacity="1.000000" stroke-width="1.000000"/>
	<path id="Combined-Shape" d="M34.2863 39L31.2868 39L31.2868 36.0005L34.2863 36.0005L34.2863 39ZM36.0005 39L36.0005 36.0005L39 36.0005L39 39L36.0005 39ZM36.0005 31.2867L39 31.2867L39 34.2863L36.0005 34.2863L36.0005 31.2867ZM36.0005 29.5725L36.0005 26.573L39 26.573L39 29.5725L36.0005 29.5725ZM36.0005 24.8588L36.0005 21.8593L39 21.8593L39 24.8588L36.0005 24.8588ZM36.0005 20.145L36.0005 17.1455L39 17.1455L39 20.145L36.0005 20.145ZM36.0005 15.4313L36.0005 12.4318L39 12.4318L39 15.4313L36.0005 15.4313ZM36.0005 10.7175L36.0005 7.71802L39 7.71802L39 10.7175L36.0005 10.7175ZM36.0005 6.00378L36.0005 3L39 3L39 6.00378L36.0005 6.00378ZM34.2863 3L34.2863 34.2863L3.00003 34.2863L3.00003 3L34.2863 3ZM29.5725 39L26.5731 39L26.5731 36.0005L29.5725 36.0005L29.5725 39ZM24.8588 39L21.8593 39L21.8593 36.0005L24.8588 36.0005L24.8588 39ZM20.145 39L17.1455 39L17.1455 36.0005L20.145 36.0005L20.145 39ZM15.4313 39L12.4318 39L12.4318 36.0005L15.4313 36.0005L15.4313 39ZM10.7175 39L7.71805 39L7.71805 36.0005L10.7175 36.0005L10.7175 39ZM6.00375 39L3 39L3 36.0005L6.00375 36.0005L6.00375 39Z" clip-rule="evenodd" fill="currentColor" fill-opacity="1.000000" fill-rule="evenodd"/>
	<path id="16" d="M26.3727 14.957C27.9352 14.957 29.024 15.3623 29.6393 16.1729C30.2545 16.9834 30.5621 17.8184 30.5621 18.6777L28.8238 18.6777C28.7197 18.1243 28.5536 17.6914 28.3258 17.3789C27.9026 16.793 27.2613 16.5 26.4019 16.5C25.4189 16.5 24.6376 16.9541 24.0582 17.8623C23.4788 18.7705 23.1565 20.071 23.0914 21.7637C23.4951 21.1712 24.0029 20.7285 24.6148 20.4355C25.1747 20.1751 25.7997 20.0449 26.4898 20.0449C27.6617 20.0449 28.6838 20.4193 29.5562 21.168C30.4286 21.9167 30.8648 23.0332 30.8648 24.5176C30.8648 25.7871 30.4514 26.9118 29.6246 27.8916C28.7978 28.8714 27.6194 29.3613 26.0894 29.3613C24.7809 29.3613 23.6513 28.8649 22.7008 27.8721C21.7502 26.8792 21.275 25.2077 21.275 22.8574C21.275 21.1191 21.4866 19.6445 21.9098 18.4336C22.7236 16.1158 24.2112 14.957 26.3727 14.957ZM11.3141 17.75L11.3141 19.0977L14.6051 19.0977L14.6051 29L16.4801 29L16.4801 15.0742L15.0934 15.0742C14.8459 16.155 14.4716 16.8401 13.9703 17.1299C13.469 17.4196 12.5836 17.6263 11.3141 17.75ZM28.3209 26.8662C27.8619 27.488 27.1702 27.7988 26.2457 27.7988C25.3277 27.7988 24.61 27.4977 24.0924 26.8955C23.5748 26.2933 23.316 25.5495 23.316 24.6641C23.316 23.655 23.6008 22.8997 24.1705 22.3984C24.7402 21.8972 25.4026 21.6465 26.1578 21.6465C27.2385 21.6465 27.984 21.9704 28.3941 22.6182C28.8043 23.2659 29.0094 23.9479 29.0094 24.6641C29.0094 25.5104 28.7799 26.2444 28.3209 26.8662Z" clip-rule="evenodd" fill="#000000" fill-opacity="1.000000" fill-rule="evenodd"/>
	<path id="16" d="M26.3727 14.957C27.9352 14.957 29.024 15.3623 29.6393 16.1729C30.2545 16.9834 30.5621 17.8184 30.5621 18.6777L28.8238 18.6777C28.7197 18.1243 28.5536 17.6914 28.3258 17.3789C27.9026 16.793 27.2613 16.5 26.4019 16.5C25.4189 16.5 24.6376 16.9541 24.0582 17.8623C23.4788 18.7705 23.1565 20.071 23.0914 21.7637C23.4951 21.1712 24.0029 20.7285 24.6148 20.4355C25.1747 20.1751 25.7997 20.0449 26.4898 20.0449C27.6617 20.0449 28.6838 20.4193 29.5562 21.168C30.4286 21.9167 30.8648 23.0332 30.8648 24.5176C30.8648 25.7871 30.4514 26.9118 29.6246 27.8916C28.7978 28.8714 27.6194 29.3613 26.0894 29.3613C24.7809 29.3613 23.6513 28.8649 22.7008 27.8721C21.7502 26.8792 21.275 25.2077 21.275 22.8574C21.275 21.1191 21.4866 19.6445 21.9098 18.4336C22.7236 16.1158 24.2112 14.957 26.3727 14.957ZM11.3141 17.75L11.3141 19.0977L14.6051 19.0977L14.6051 29L16.4801 29L16.4801 15.0742L15.0934 15.0742C14.8459 16.155 14.4716 16.8401 13.9703 17.1299C13.469 17.4196 12.5836 17.6263 11.3141 17.75ZM28.3209 26.8662C27.8619 27.488 27.1702 27.7988 26.2457 27.7988C25.3277 27.7988 24.61 27.4977 24.0924 26.8955C23.5748 26.2933 23.316 25.5495 23.316 24.6641C23.316 23.655 23.6008 22.8997 24.1705 22.3984C24.7402 21.8972 25.4026 21.6465 26.1578 21.6465C27.2385 21.6465 27.984 21.9704 28.3941 22.6182C28.8043 23.2659 29.0094 23.9479 29.0094 24.6641C29.0094 25.5104 28.7799 26.2444 28.3209 26.8662Z" clip-rule="evenodd" fill="#333333" fill-opacity="1.000000" fill-rule="evenodd"/>
</svg>
