<svg width="42.000000" height="42.000000" viewBox="0 0 42 42" fill="none" xmlns="http://www.w3.org/2000/svg" xmlns:xlink="http://www.w3.org/1999/xlink">
	<desc>
			Created with Pixso.
	</desc>
	<defs/>
	<rect id="Rectangle-2-Copy-48" x="0.500000" y="0.500000" width="41.000000" height="41.000000" stroke="currentColor" stroke-opacity="1.000000" stroke-width="1.000000"/>
	<path id="Combined-Shape" d="M39 32.715L39 28.1443L34.4293 28.1443L34.4293 32.715L39 32.715ZM39 34.4293L34.4293 34.4293L34.4293 39.0001L39 39.0001L39 34.4293ZM3 32.715L32.715 32.715L32.715 3L3 3L3 32.715ZM3 34.4293L3 39.0001L7.57501 39.0001L7.57501 34.4293L3 34.4293ZM9.28928 34.4293L9.28928 39.0001L13.86 39.0001L13.86 34.4293L9.28928 34.4293ZM15.5743 34.4293L15.5743 39.0001L20.145 39.0001L20.145 34.4293L15.5743 34.4293ZM21.8593 34.4293L21.8593 39.0001L26.43 39.0001L26.43 34.4293L21.8593 34.4293ZM28.1443 34.4293L28.1443 39.0001L32.715 39.0001L32.715 34.4293L28.1443 34.4293ZM39 26.4301L39 21.8593L34.4293 21.8593L34.4293 26.4301L39 26.4301ZM39 20.145L39 15.5743L34.4293 15.5743L34.4293 20.145L39 20.145ZM39 13.86L39 9.28931L34.4293 9.28931L34.4293 13.86L39 13.86ZM39 7.57501L39 3L34.4293 3L34.4293 7.57501L39 7.57501Z" clip-rule="evenodd" fill="currentColor" fill-opacity="1.000000" fill-rule="evenodd"/>
	<path id="12" d="M21.8951 25.8555C21.4622 26.7474 21.2131 27.7956 21.148 29L30.7477 29L30.7477 27.3398L23.1109 27.3398C23.2802 26.6497 23.6904 26.0215 24.3414 25.4551C24.706 25.136 25.2073 24.8008 25.8453 24.4492L27.1832 23.707C28.3616 23.0495 29.1786 22.4896 29.6344 22.0273C30.4221 21.2331 30.816 20.2761 30.816 19.1562C30.816 18.095 30.4465 17.1315 29.7076 16.2656C28.9687 15.3997 27.7984 14.9668 26.1969 14.9668C24.2698 14.9668 22.9254 15.6439 22.1637 16.998C21.734 17.7663 21.5094 18.7591 21.4898 19.9766L23.2769 19.9766C23.303 19.1107 23.4397 18.4336 23.6871 17.9453C24.1494 17.0339 24.9827 16.5781 26.1871 16.5781C27.0009 16.5781 27.6519 16.8174 28.1402 17.2959C28.6285 17.7744 28.8727 18.4206 28.8727 19.2344C28.8727 19.931 28.6057 20.5495 28.0719 21.0898C27.7333 21.4349 27.1441 21.8516 26.3043 22.3398L24.4293 23.4238C23.1728 24.153 22.3281 24.9636 21.8951 25.8555ZM11.3141 19.0977L11.3141 17.75C12.5836 17.6263 13.469 17.4196 13.9703 17.1299C14.4716 16.8401 14.8459 16.155 15.0934 15.0742L16.4801 15.0742L16.4801 29L14.6051 29L14.6051 19.0977L11.3141 19.0977Z" clip-rule="evenodd" fill="#000000" fill-opacity="1.000000" fill-rule="evenodd"/>
	<path id="12" d="M21.8951 25.8555C21.4622 26.7474 21.2131 27.7956 21.148 29L30.7477 29L30.7477 27.3398L23.1109 27.3398C23.2802 26.6497 23.6904 26.0215 24.3414 25.4551C24.706 25.136 25.2073 24.8008 25.8453 24.4492L27.1832 23.707C28.3616 23.0495 29.1786 22.4896 29.6344 22.0273C30.4221 21.2331 30.816 20.2761 30.816 19.1562C30.816 18.095 30.4465 17.1315 29.7076 16.2656C28.9687 15.3997 27.7984 14.9668 26.1969 14.9668C24.2698 14.9668 22.9254 15.6439 22.1637 16.998C21.734 17.7663 21.5094 18.7591 21.4898 19.9766L23.2769 19.9766C23.303 19.1107 23.4397 18.4336 23.6871 17.9453C24.1494 17.0339 24.9827 16.5781 26.1871 16.5781C27.0009 16.5781 27.6519 16.8174 28.1402 17.2959C28.6285 17.7744 28.8727 18.4206 28.8727 19.2344C28.8727 19.931 28.6057 20.5495 28.0719 21.0898C27.7333 21.4349 27.1441 21.8516 26.3043 22.3398L24.4293 23.4238C23.1728 24.153 22.3281 24.9636 21.8951 25.8555ZM11.3141 19.0977L11.3141 17.75C12.5836 17.6263 13.469 17.4196 13.9703 17.1299C14.4716 16.8401 14.8459 16.155 15.0934 15.0742L16.4801 15.0742L16.4801 29L14.6051 29L14.6051 19.0977L11.3141 19.0977Z" clip-rule="evenodd" fill="#333333" fill-opacity="1.000000" fill-rule="evenodd"/>
</svg>
