<svg width="42.000000" height="42.000000" viewBox="0 0 42 42" fill="none" xmlns="http://www.w3.org/2000/svg" xmlns:xlink="http://www.w3.org/1999/xlink">
	<desc>
			Created with Pixso.
	</desc>
	<defs/>
	<rect id="Rectangle-2-Copy-46" x="0.500000" y="0.500000" width="41.000000" height="41.000000" stroke="currentColor" stroke-opacity="1.000000" stroke-width="1.000000"/>
	<path id="Combined-Shape" d="M21.4286 26.4286L21.4286 15.5714L28.9286 15.5714L28.9286 26.4286L21.4286 26.4286ZM21.4286 28.1428L28.9286 28.1428L28.9286 39L21.4286 39L21.4286 28.1428ZM39 26.4286L30.6429 26.4286L30.6429 15.5714L39 15.5714L39 26.4286ZM39 28.1428L39 39L30.6429 39L30.6429 28.1428L39 28.1428ZM12.2143 28.1428L19.7143 28.1428L19.7143 39L12.2143 39L12.2143 28.1428ZM10.5 28.1428L10.5 39L3 39L3 28.1428L10.5 28.1428ZM3 26.4286L3 3L19.7143 3L19.7143 26.4286L3 26.4286ZM21.4286 13.8572L21.4286 3L28.9286 3L28.9286 13.8572L21.4286 13.8572ZM39 13.8572L30.6429 13.8572L30.6429 3L39 3L39 13.8572Z" clip-rule="evenodd" fill="currentColor" fill-opacity="1.000000" fill-rule="evenodd"/>
	<path id="9" d="M17.8563 25.6211C17.9084 26.5911 18.2827 27.2617 18.9793 27.6328C19.3374 27.8281 19.741 27.9258 20.1902 27.9258C21.0301 27.9258 21.7462 27.5759 22.3387 26.876C22.9311 26.1761 23.351 24.7552 23.5984 22.6133C23.2078 23.2318 22.7244 23.6663 22.1483 23.917C21.5721 24.1677 20.952 24.293 20.2879 24.293C18.9402 24.293 17.8742 23.873 17.0897 23.0332C16.3051 22.1934 15.9129 21.1126 15.9129 19.791C15.9129 18.5215 16.3003 17.405 17.075 16.4414C17.8498 15.4778 18.9923 14.9961 20.5027 14.9961C22.5405 14.9961 23.9467 15.9141 24.7215 17.75C25.1512 18.7591 25.366 20.0222 25.366 21.5391C25.366 23.2513 25.1089 24.7682 24.5945 26.0898C23.7417 28.2904 22.2964 29.3906 20.2586 29.3906C18.8914 29.3906 17.853 29.0325 17.1434 28.3164C16.4337 27.6003 16.0789 26.7018 16.0789 25.6211L17.8563 25.6211ZM22.4315 22.0615C21.8553 22.5205 21.2189 22.75 20.5223 22.75C19.5522 22.75 18.8459 22.4814 18.4031 21.9443C17.9604 21.4072 17.7391 20.6829 17.7391 19.7715C17.7391 18.8079 17.9914 18.0381 18.4959 17.4619C19.0005 16.8857 19.6824 16.5977 20.5418 16.5977C21.3426 16.5977 22.0018 16.8499 22.5193 17.3545C23.0369 17.8591 23.2957 18.6257 23.2957 19.6543C23.2957 20.8001 23.0076 21.6025 22.4315 22.0615Z" clip-rule="evenodd" fill="#000000" fill-opacity="1.000000" fill-rule="evenodd"/>
	<path id="9" d="M17.8563 25.6211C17.9084 26.5911 18.2827 27.2617 18.9793 27.6328C19.3374 27.8281 19.741 27.9258 20.1902 27.9258C21.0301 27.9258 21.7462 27.5759 22.3387 26.876C22.9311 26.1761 23.351 24.7552 23.5984 22.6133C23.2078 23.2318 22.7244 23.6663 22.1483 23.917C21.5721 24.1677 20.952 24.293 20.2879 24.293C18.9402 24.293 17.8742 23.873 17.0897 23.0332C16.3051 22.1934 15.9129 21.1126 15.9129 19.791C15.9129 18.5215 16.3003 17.405 17.075 16.4414C17.8498 15.4778 18.9923 14.9961 20.5027 14.9961C22.5405 14.9961 23.9467 15.9141 24.7215 17.75C25.1512 18.7591 25.366 20.0222 25.366 21.5391C25.366 23.2513 25.1089 24.7682 24.5945 26.0898C23.7417 28.2904 22.2964 29.3906 20.2586 29.3906C18.8914 29.3906 17.853 29.0325 17.1434 28.3164C16.4337 27.6003 16.0789 26.7018 16.0789 25.6211L17.8563 25.6211ZM22.4315 22.0615C21.8553 22.5205 21.2189 22.75 20.5223 22.75C19.5522 22.75 18.8459 22.4814 18.4031 21.9443C17.9604 21.4072 17.7391 20.6829 17.7391 19.7715C17.7391 18.8079 17.9914 18.0381 18.4959 17.4619C19.0005 16.8857 19.6824 16.5977 20.5418 16.5977C21.3426 16.5977 22.0018 16.8499 22.5193 17.3545C23.0369 17.8591 23.2957 18.6257 23.2957 19.6543C23.2957 20.8001 23.0076 21.6025 22.4315 22.0615Z" clip-rule="evenodd" fill="#333333" fill-opacity="1.000000" fill-rule="evenodd"/>
</svg>
