<svg width="24.000000" height="24.000000" viewBox="0 0 24 24" fill="none" xmlns="http://www.w3.org/2000/svg" xmlns:xlink="http://www.w3.org/1999/xlink">
	<desc>
			Created with Pixso.
	</desc>
	<defs/>
	<path id="icon" d="M11.0003 6.87891L11.0003 6.5C11.0003 5.6731 11.6733 5 12.5003 5C13.3273 5 14.0003 5.6731 14.0003 6.5L14.0003 9.87891L15.0003 10.8789L15.0003 6.5C15.0003 5.1189 13.9023 4 12.5213 4C11.3313 4 10.3303 4.83203 10.0773 5.94507L11.0003 6.87891ZM18.8449 16.0959C19.0399 16.291 19.0399 16.6082 18.8449 16.803C18.6499 16.999 18.3329 16.999 18.1369 16.803L8.23793 6.90405C8.04292 6.70898 8.04292 6.39209 8.23793 6.19702C8.43292 6.00195 8.74992 6.00195 8.94493 6.19702L18.8449 16.0959ZM14.2329 14.3228C13.7859 14.7397 13.1799 14.9998 12.5209 14.9998C11.1399 14.9998 9.99988 13.8809 9.99988 12.4998L9.99988 10.1208L10.9999 11.1208L10.9999 12.4998C10.9999 13.3269 11.6909 13.9998 12.5179 13.9998C12.9009 13.9998 13.2649 13.8518 13.5299 13.6147L14.2329 14.3228ZM16.967 12.8455C16.976 12.7295 17 12.6174 17 12.4995L17 10.9995C17 10.7234 16.776 10.4995 16.5 10.4995C16.224 10.4995 16 10.7234 16 10.9995L16 11.8784L16.967 12.8455ZM14.5422 20C14.8182 20 15.0422 19.7761 15.0422 19.5C15.0422 19.2241 14.8182 19 14.5422 19L13.0002 19L13.0002 16.95C14.0002 16.8372 14.9202 16.3831 15.6162 15.7222L14.9402 15.03C14.3122 15.6279 13.4562 16 12.5212 16C10.5882 16 9.00018 14.4331 9.00018 12.5L9.00018 11C9.00018 10.7241 8.77618 10.5 8.50018 10.5C8.22418 10.5 8.00018 10.7241 8.00018 11L8.00018 12.5C8.00018 14.8149 10.0002 16.698 12.0002 16.95L12.0002 19L10.5422 19C10.2662 19 10.0422 19.2241 10.0422 19.5C10.0422 19.7761 10.2662 20 10.5422 20L14.5422 20Z" clip-rule="evenodd" fill-rule="evenodd" fill="currentColor" fill-opacity="1"/>
</svg>
