<svg width="24.000000" height="24.000000" viewBox="0 0 24 24" fill="none" xmlns="http://www.w3.org/2000/svg" xmlns:xlink="http://www.w3.org/1999/xlink">
	<desc>
			Created with Pixso.
	</desc>
	<defs/>
	<path id="icon" d="M7.17511 7.87315C6.95975 7.6898 6.94037 7.37397 7.13181 7.16772C7.32324 6.96146 7.65302 6.94288 7.86838 7.12622L12.7899 11.5532C13.0483 11.7732 13.0716 12.1522 12.8419 12.3997C12.8169 12.4256 12.8169 12.4256 12.7899 12.4495L7.93622 16.8738C7.72086 17.0571 7.39105 17.0385 7.19962 16.8323C7.00818 16.626 7.02759 16.3102 7.24295 16.1269L11.7456 12.0013L7.17511 7.87315ZM11.1318 7.16772C10.9404 7.37397 10.9597 7.6898 11.1751 7.87315L15.7456 12.0013L11.243 16.1269C11.0276 16.3102 11.0082 16.626 11.1996 16.8323C11.3911 17.0385 11.7209 17.0571 11.9362 16.8738L16.7899 12.4495C16.8169 12.4256 16.8169 12.4256 16.8419 12.3997C17.0716 12.1522 17.0483 11.7732 16.7899 11.5532L11.8684 7.12622C11.653 6.94288 11.3232 6.96146 11.1318 7.16772Z" clip-rule="evenodd" fill-rule="evenodd" fill="currentColor" fill-opacity="1"/>
</svg>
