<svg width="42.000000" height="42.000000" viewBox="0 0 42 42" fill="none" xmlns="http://www.w3.org/2000/svg" xmlns:xlink="http://www.w3.org/1999/xlink">
	<desc>
			Created with Pixso.
	</desc>
	<defs/>
	<rect id="Rectangle-2-Copy-68" x="0.500000" y="0.500000" width="41.000000" height="41.000000" stroke="currentColor" stroke-opacity="1.000000" stroke-width="1.000000"/>
	<path id="Combined-Shape" d="M29.5714 38.9999L29.5714 31.2856L21.8571 31.2856L21.8571 38.9999L29.5714 38.9999ZM31.2857 38.9999L39 38.9999L39 31.2856L31.2857 31.2856L31.2857 38.9999ZM29.5714 3L21.8571 3L21.8571 10.7142L29.5714 10.7142L29.5714 3ZM31.2857 3L31.2857 10.7142L39 10.7142L39 3L31.2857 3ZM29.5714 12.4286L12.4286 12.4286L12.4286 29.5714L29.5714 29.5714L29.5714 12.4286ZM31.2857 12.4286L31.2857 20.1428L39 20.1428L39 12.4286L31.2857 12.4286ZM31.2857 21.8571L31.2857 29.5713L39 29.5713L39 21.8571L31.2857 21.8571ZM20.1429 38.9999L20.1429 31.2856L12.4286 31.2856L12.4286 38.9999L20.1429 38.9999ZM20.1429 3L12.4286 3L12.4286 10.7142L20.1429 10.7142L20.1429 3ZM10.7143 12.4286L3 12.4286L3 20.1428L10.7143 20.1428L10.7143 12.4286ZM10.7143 21.8571L3 21.8571L3 29.5713L10.7143 29.5713L10.7143 21.8571ZM10.7143 38.9999L10.7143 31.2856L3 31.2856L3 38.9999L10.7143 38.9999ZM10.7143 3L3 3L3 10.7142L10.7143 10.7142L10.7143 3Z" clip-rule="evenodd" fill="currentColor" fill-opacity="1.000000" fill-rule="evenodd"/>
	<path id="13" d="M22.1197 28.0186C22.8652 28.9268 24.0647 29.3809 25.7184 29.3809C27.3329 29.3809 28.5797 28.9609 29.4586 28.1211C30.3375 27.2812 30.7769 26.194 30.7769 24.8594C30.7769 24.026 30.5703 23.3213 30.1568 22.7451C29.7434 22.1689 29.1689 21.7799 28.4332 21.5781C28.8889 21.3893 29.26 21.1289 29.5465 20.7969C30.0087 20.2631 30.2398 19.5664 30.2398 18.707C30.2398 17.5026 29.8492 16.583 29.068 15.9482C28.2867 15.3135 27.1832 14.9961 25.7574 14.9961C23.954 14.9961 22.6943 15.6471 21.9781 16.9492C21.5614 17.6783 21.3531 18.5638 21.3531 19.6055L23.0914 19.6055C23.1239 18.8112 23.2639 18.1992 23.5113 17.7695C23.9605 16.9883 24.7711 16.5977 25.943 16.5977C26.6005 16.5977 27.1767 16.7865 27.6715 17.1641C28.1663 17.5416 28.4137 18.0787 28.4137 18.7754C28.4137 19.7129 28.0426 20.3639 27.3004 20.7285C26.8772 20.9369 26.3369 21.041 25.6793 21.041C25.5361 21.041 25.4026 21.0377 25.2789 21.0312C25.1552 21.0248 25.0022 21.0117 24.8199 20.9922L24.8199 22.5449C24.9436 22.5385 25.0657 22.5336 25.1861 22.5303C25.3066 22.527 25.4254 22.5254 25.5426 22.5254C26.5908 22.5254 27.4094 22.7174 27.9986 23.1016C28.5878 23.4857 28.8824 24.1595 28.8824 25.123C28.8824 25.9043 28.6025 26.5424 28.0426 27.0371C27.4827 27.5319 26.7405 27.7793 25.816 27.7793C24.6246 27.7793 23.801 27.4115 23.3453 26.6758C23.0849 26.2656 22.9156 25.608 22.8375 24.7031L21.0016 24.7031C21.0016 26.0052 21.3743 27.1104 22.1197 28.0186ZM11.3141 19.0977L11.3141 17.75C12.5836 17.6263 13.469 17.4196 13.9703 17.1299C14.4716 16.8402 14.846 16.1549 15.0934 15.0742L16.4801 15.0742L16.4801 29L14.6051 29L14.6051 19.0977L11.3141 19.0977Z" clip-rule="evenodd" fill="#000000" fill-opacity="1.000000" fill-rule="evenodd"/>
	<path id="13" d="M22.1197 28.0186C22.8652 28.9268 24.0647 29.3809 25.7184 29.3809C27.3329 29.3809 28.5797 28.9609 29.4586 28.1211C30.3375 27.2812 30.7769 26.194 30.7769 24.8594C30.7769 24.026 30.5703 23.3213 30.1568 22.7451C29.7434 22.1689 29.1689 21.7799 28.4332 21.5781C28.8889 21.3893 29.26 21.1289 29.5465 20.7969C30.0087 20.2631 30.2398 19.5664 30.2398 18.707C30.2398 17.5026 29.8492 16.583 29.068 15.9482C28.2867 15.3135 27.1832 14.9961 25.7574 14.9961C23.954 14.9961 22.6943 15.6471 21.9781 16.9492C21.5614 17.6783 21.3531 18.5638 21.3531 19.6055L23.0914 19.6055C23.1239 18.8112 23.2639 18.1992 23.5113 17.7695C23.9605 16.9883 24.7711 16.5977 25.943 16.5977C26.6005 16.5977 27.1767 16.7865 27.6715 17.1641C28.1663 17.5416 28.4137 18.0787 28.4137 18.7754C28.4137 19.7129 28.0426 20.3639 27.3004 20.7285C26.8772 20.9369 26.3369 21.041 25.6793 21.041C25.5361 21.041 25.4026 21.0377 25.2789 21.0312C25.1552 21.0248 25.0022 21.0117 24.8199 20.9922L24.8199 22.5449C24.9436 22.5385 25.0657 22.5336 25.1861 22.5303C25.3066 22.527 25.4254 22.5254 25.5426 22.5254C26.5908 22.5254 27.4094 22.7174 27.9986 23.1016C28.5878 23.4857 28.8824 24.1595 28.8824 25.123C28.8824 25.9043 28.6025 26.5424 28.0426 27.0371C27.4827 27.5319 26.7405 27.7793 25.816 27.7793C24.6246 27.7793 23.801 27.4115 23.3453 26.6758C23.0849 26.2656 22.9156 25.608 22.8375 24.7031L21.0016 24.7031C21.0016 26.0052 21.3743 27.1104 22.1197 28.0186ZM11.3141 19.0977L11.3141 17.75C12.5836 17.6263 13.469 17.4196 13.9703 17.1299C14.4716 16.8402 14.846 16.1549 15.0934 15.0742L16.4801 15.0742L16.4801 29L14.6051 29L14.6051 19.0977L11.3141 19.0977Z" clip-rule="evenodd" fill="#333333" fill-opacity="1.000000" fill-rule="evenodd"/>
</svg>
