<svg width="42.000000" height="42.000000" viewBox="0 0 42 42" fill="none" xmlns="http://www.w3.org/2000/svg" xmlns:xlink="http://www.w3.org/1999/xlink">
	<desc>
			Created with Pixso.
	</desc>
	<defs/>
	<path id="Combined-Shape" d="M3 39L20.1429 39L20.1429 3L3 3L3 39ZM21.8572 3L39 3L39 13.8572L21.8572 13.8572L21.8572 3ZM39 15.5714L21.8572 15.5714L21.8572 26.4286L39 26.4286L39 15.5714ZM39 39L21.8572 39L21.8572 28.1428L39 28.1428L39 39Z" clip-rule="evenodd" fill="currentColor" fill-opacity="1.000000" fill-rule="evenodd"/>
	<path id="4" d="M21.8406 25.582L21.8406 29L23.5984 29L23.5984 25.582L25.659 25.582L25.659 24.0488L23.5984 24.0488L23.5984 14.9766L22.1141 14.9766L15.7078 23.8633L15.7078 25.582L21.8406 25.582ZM21.8113 17.7109L21.8113 24.0488L17.3289 24.0488L21.8113 17.7109Z" clip-rule="evenodd" fill="#000000" fill-opacity="1.000000" fill-rule="evenodd"/>
	<path id="4" d="M21.8406 25.582L21.8406 29L23.5984 29L23.5984 25.582L25.659 25.582L25.659 24.0488L23.5984 24.0488L23.5984 14.9766L22.1141 14.9766L15.7078 23.8633L15.7078 25.582L21.8406 25.582ZM21.8113 17.7109L21.8113 24.0488L17.3289 24.0488L21.8113 17.7109Z" clip-rule="evenodd" fill="#333333" fill-opacity="1.000000" fill-rule="evenodd"/>
	<rect id="Rectangle-2-Copy-5" x="0.500000" y="0.500000" width="41.000000" height="41.000000" stroke="currentColor" stroke-opacity="1.000000" stroke-width="1.000000"/>
</svg>
