<svg width="42.000000" height="42.000000" viewBox="0 0 42 42" fill="none" xmlns="http://www.w3.org/2000/svg" xmlns:xlink="http://www.w3.org/1999/xlink">
	<desc>
			Created with Pixso.
	</desc>
	<defs/>
	<path id="Combined-Shape" d="M39 3L39 20.1428L3 20.1428L3 3L39 3ZM39 39L39 21.8572L28.1429 21.8572L28.1429 39L39 39ZM15.5714 39L26.4286 39L26.4286 21.8572L15.5714 21.8572L15.5714 39ZM3 39L13.8571 39L13.8571 21.8572L3 21.8572L3 39Z" clip-rule="evenodd" fill="currentColor" fill-opacity="1.000000" fill-rule="evenodd"/>
	<rect id="Rectangle-2-Copy-24" x="0.500000" y="0.500000" width="41.000000" height="41.000000" stroke="currentColor" stroke-opacity="1.000000" stroke-width="1.000000"/>
	<path id="4" d="M21.8406 25.582L21.8406 29L23.5984 29L23.5984 25.582L25.659 25.582L25.659 24.0488L23.5984 24.0488L23.5984 14.9766L22.1141 14.9766L15.7078 23.8633L15.7078 25.582L21.8406 25.582ZM21.8113 17.7109L21.8113 24.0488L17.3289 24.0488L21.8113 17.7109Z" clip-rule="evenodd" fill="#000000" fill-opacity="1.000000" fill-rule="evenodd"/>
	<path id="4" d="M21.8406 25.582L21.8406 29L23.5984 29L23.5984 25.582L25.659 25.582L25.659 24.0488L23.5984 24.0488L23.5984 14.9766L22.1141 14.9766L15.7078 23.8633L15.7078 25.582L21.8406 25.582ZM21.8113 17.7109L21.8113 24.0488L17.3289 24.0488L21.8113 17.7109Z" clip-rule="evenodd" fill="#333333" fill-opacity="1.000000" fill-rule="evenodd"/>
</svg>
