<svg width="42.000000" height="42.000000" viewBox="0 0 42 42" fill="none" xmlns="http://www.w3.org/2000/svg" xmlns:xlink="http://www.w3.org/1999/xlink">
	<desc>
			Created with Pixso.
	</desc>
	<defs/>
	<rect id="Rectangle-2-Copy-65" x="0.500000" y="0.500000" width="41.000000" height="41.000000" stroke="currentColor" stroke-opacity="1.000000" stroke-width="1.000000"/>
	<path id="Combined-Shape" d="M3 20.1428L3 3L20.1429 3L20.1429 20.1428L3 20.1428ZM39 3L39 20.1428L21.8571 20.1428L21.8571 3L39 3ZM21.8571 21.8571L21.8571 29.5714L29.5714 29.5714L29.5714 21.8571L21.8571 21.8571ZM39 29.5714L39 21.8571L31.2857 21.8571L31.2857 29.5714L39 29.5714ZM3 39L3 21.8572L20.1429 21.8572L20.1429 39L3 39ZM21.8571 31.2856L21.8571 39L29.5714 39L29.5714 31.2856L21.8571 31.2856ZM39 31.2856L39 39L31.2857 39L31.2857 31.2856L39 31.2856Z" clip-rule="evenodd" fill="currentColor" fill-opacity="1.000000" fill-rule="evenodd"/>
	<path id="7" d="M25.65 15.25L25.65 16.78C25.2 17.21 24.61 17.97 23.86 19.05C23.12 20.13 22.46 21.3 21.88 22.55C21.32 23.77 20.89 24.88 20.6 25.88C20.41 26.52 20.16 27.56 19.86 29L17.92 29C18.36 26.33 19.34 23.67 20.85 21.03C21.74 19.48 22.68 18.14 23.66 17.01L15.93 17.01L15.93 15.25L25.65 15.25Z" fill="#000000" fill-opacity="1.000000" fill-rule="evenodd"/>
	<path id="7" d="M25.65 15.25L25.65 16.78C25.2 17.21 24.61 17.97 23.86 19.05C23.12 20.13 22.46 21.3 21.88 22.55C21.32 23.77 20.89 24.88 20.6 25.88C20.41 26.52 20.16 27.56 19.86 29L17.92 29C18.36 26.33 19.34 23.67 20.85 21.03C21.74 19.48 22.68 18.14 23.66 17.01L15.93 17.01L15.93 15.25L25.65 15.25Z" fill="#333333" fill-opacity="1.000000" fill-rule="evenodd"/>
</svg>
