<svg width="42.000000" height="42.000000" viewBox="0 0 42 42" fill="none" xmlns="http://www.w3.org/2000/svg" xmlns:xlink="http://www.w3.org/1999/xlink">
	<desc>
			Created with Pixso.
	</desc>
	<defs/>
	<rect id="Rectangle-2-Copy-66" x="0.500000" y="0.500000" width="41.000000" height="41.000000" stroke="currentColor" stroke-opacity="1.000000" stroke-width="1.000000"/>
	<path id="Combined-Shape" d="M3 20.1428L3 3L15.4286 3L15.4286 20.1428L3 20.1428ZM17.1429 3L17.1429 20.1428L29.5714 20.1428L29.5714 3L17.1429 3ZM39 3L39 13.8572L31.2857 13.8572L31.2857 3L39 3ZM39 15.5714L39 26.4286L31.2857 26.4286L31.2857 15.5714L39 15.5714ZM15.4286 21.8572L15.4286 39L3 39L3 21.8572L15.4286 21.8572ZM29.5714 39L29.5714 21.8572L17.1429 21.8572L17.1429 39L29.5714 39ZM39 28.1428L39 39L31.2857 39L31.2857 28.1428L39 28.1428Z" clip-rule="evenodd" fill="currentColor" fill-opacity="1.000000" fill-rule="evenodd"/>
	<path id="7" d="M25.65 15.25L25.65 16.78C25.2 17.21 24.61 17.97 23.86 19.05C23.12 20.13 22.46 21.3 21.88 22.55C21.32 23.77 20.89 24.88 20.6 25.88C20.41 26.52 20.16 27.56 19.86 29L17.92 29C18.36 26.33 19.34 23.67 20.85 21.03C21.74 19.48 22.68 18.14 23.66 17.01L15.93 17.01L15.93 15.25L25.65 15.25Z" fill="#000000" fill-opacity="1.000000" fill-rule="evenodd"/>
	<path id="7" d="M25.65 15.25L25.65 16.78C25.2 17.21 24.61 17.97 23.86 19.05C23.12 20.13 22.46 21.3 21.88 22.55C21.32 23.77 20.89 24.88 20.6 25.88C20.41 26.52 20.16 27.56 19.86 29L17.92 29C18.36 26.33 19.34 23.67 20.85 21.03C21.74 19.48 22.68 18.14 23.66 17.01L15.93 17.01L15.93 15.25L25.65 15.25Z" fill="#333333" fill-opacity="1.000000" fill-rule="evenodd"/>
</svg>
