<svg width="42.000000" height="42.000000" viewBox="0 0 42 42" fill="none" xmlns="http://www.w3.org/2000/svg" xmlns:xlink="http://www.w3.org/1999/xlink">
	<desc>
			Created with Pixso.
	</desc>
	<defs/>
	<rect id="Rectangle-2-Copy-67" x="0.500000" y="0.500000" width="41.000000" height="41.000000" stroke="currentColor" stroke-opacity="1.000000" stroke-width="1.000000"/>
	<path id="Combined-Shape" d="M26.4286 21.8571L15.5714 21.8571L15.5714 29.5713L26.4286 29.5713L26.4286 21.8571ZM28.1429 21.8571L28.1429 29.5713L39 29.5713L39 21.8571L28.1429 21.8571ZM26.4286 38.9999L26.4286 31.2856L15.5714 31.2856L15.5714 38.9999L26.4286 38.9999ZM28.1429 38.9999L39 38.9999L39 31.2856L28.1429 31.2856L28.1429 38.9999ZM26.4286 12.4286L15.5714 12.4286L15.5714 20.1428L26.4286 20.1428L26.4286 12.4286ZM28.1429 12.4286L28.1429 20.1428L39 20.1428L39 12.4286L28.1429 12.4286ZM26.4286 3L15.5714 3L15.5714 10.7142L26.4286 10.7142L26.4286 3ZM28.1429 3L28.1429 10.7142L39 10.7142L39 3L28.1429 3ZM13.8571 21.8571L3 21.8571L3 29.5713L13.8571 29.5713L13.8571 21.8571ZM13.8571 38.9999L13.8571 31.2856L3 31.2856L3 38.9999L13.8571 38.9999ZM13.8571 12.4286L3 12.4286L3 20.1428L13.8571 20.1428L13.8571 12.4286ZM13.8571 3L3 3L3 10.7142L13.8571 10.7142L13.8571 3Z" clip-rule="evenodd" fill="currentColor" fill-opacity="1.000000" fill-rule="evenodd"/>
	<path id="12" d="M21.8951 25.8555C21.4622 26.7474 21.2132 27.7955 21.148 29L30.7477 29L30.7477 27.3398L23.1109 27.3398C23.2802 26.6498 23.6904 26.0215 24.3414 25.4551C24.706 25.1361 25.2073 24.8008 25.8453 24.4492L27.1832 23.707C28.3616 23.0494 29.1786 22.4896 29.6344 22.0273C30.4221 21.233 30.816 20.276 30.816 19.1562C30.816 18.0951 30.4465 17.1315 29.7076 16.2656C28.9687 15.3998 27.7984 14.9668 26.1969 14.9668C24.2698 14.9668 22.9254 15.6439 22.1637 16.998C21.734 17.7662 21.5094 18.7592 21.4898 19.9766L23.2769 19.9766C23.303 19.1107 23.4397 18.4336 23.6871 17.9453C24.1494 17.0338 24.9827 16.5781 26.1871 16.5781C27.0009 16.5781 27.6519 16.8174 28.1402 17.2959C28.6285 17.7744 28.8727 18.4205 28.8727 19.2344C28.8727 19.931 28.6057 20.5494 28.0719 21.0898C27.7333 21.4349 27.1441 21.8516 26.3043 22.3398L24.4293 23.4238C23.1728 24.153 22.3281 24.9635 21.8951 25.8555ZM11.3141 19.0977L11.3141 17.75C12.5836 17.6263 13.469 17.4196 13.9703 17.1299C14.4716 16.8402 14.846 16.1549 15.0934 15.0742L16.4801 15.0742L16.4801 29L14.6051 29L14.6051 19.0977L11.3141 19.0977Z" clip-rule="evenodd" fill="#000000" fill-opacity="1.000000" fill-rule="evenodd"/>
	<path id="12" d="M21.8951 25.8555C21.4622 26.7474 21.2132 27.7955 21.148 29L30.7477 29L30.7477 27.3398L23.1109 27.3398C23.2802 26.6498 23.6904 26.0215 24.3414 25.4551C24.706 25.1361 25.2073 24.8008 25.8453 24.4492L27.1832 23.707C28.3616 23.0494 29.1786 22.4896 29.6344 22.0273C30.4221 21.233 30.816 20.276 30.816 19.1562C30.816 18.0951 30.4465 17.1315 29.7076 16.2656C28.9687 15.3998 27.7984 14.9668 26.1969 14.9668C24.2698 14.9668 22.9254 15.6439 22.1637 16.998C21.734 17.7662 21.5094 18.7592 21.4898 19.9766L23.2769 19.9766C23.303 19.1107 23.4397 18.4336 23.6871 17.9453C24.1494 17.0338 24.9827 16.5781 26.1871 16.5781C27.0009 16.5781 27.6519 16.8174 28.1402 17.2959C28.6285 17.7744 28.8727 18.4205 28.8727 19.2344C28.8727 19.931 28.6057 20.5494 28.0719 21.0898C27.7333 21.4349 27.1441 21.8516 26.3043 22.3398L24.4293 23.4238C23.1728 24.153 22.3281 24.9635 21.8951 25.8555ZM11.3141 19.0977L11.3141 17.75C12.5836 17.6263 13.469 17.4196 13.9703 17.1299C14.4716 16.8402 14.846 16.1549 15.0934 15.0742L16.4801 15.0742L16.4801 29L14.6051 29L14.6051 19.0977L11.3141 19.0977Z" clip-rule="evenodd" fill="#333333" fill-opacity="1.000000" fill-rule="evenodd"/>
</svg>
