<svg width="24.000000" height="24.000000" viewBox="0 0 24 24" fill="none" xmlns="http://www.w3.org/2000/svg" xmlns:xlink="http://www.w3.org/1999/xlink">
	<desc>
			Created with Pixso.
	</desc>
	<defs/>
	<path id="Color" d="M9.5 5L7.5 5C7.21259 5.0119 6.98895 5.25415 7 5.54163L7 17.4583C6.98901 17.7458 7.21259 17.988 7.5 18L9.5 18C9.78748 17.988 10.011 17.7458 10 17.4583L10 5.54163C10.0111 5.25415 9.78748 5.0119 9.5 5ZM16.5 5L14.5 5C14.2126 5.0119 13.989 5.25415 14 5.54163L14 17.4583C13.989 17.7458 14.2126 17.988 14.5 18L16.5 18C16.7875 17.988 17.011 17.7458 17 17.4583L17 5.54163C17.0111 5.25415 16.7875 5.0119 16.5 5ZM8 17L9 17L9 6L8 6L8 17ZM15 17L16 17L16 6L15 6L15 17Z" clip-rule="evenodd" fill-rule="evenodd" fill="currentColor" fill-opacity="1.000000"/>
</svg>
