<svg width="24.000000" height="24.000000" viewBox="0 0 24 24" fill="none" xmlns="http://www.w3.org/2000/svg" xmlns:xlink="http://www.w3.org/1999/xlink">
	<desc>
			Created with Pixso.
	</desc>
	<defs/>
	<g style="mix-blend-mode:normal">
		<path id="icon" d="M16.1464 18.8535L12 14.707L7.85358 18.8535C7.71057 18.9966 7.49548 19.0393 7.30865 18.9619C7.12183 18.8845 7 18.7021 7 18.5L7 6C7 5.44775 7.44769 5 8 5L16 5C16.5523 5 17 5.44775 17 6L17 18.5C17 18.7021 16.8782 18.8845 16.6913 18.9619C16.5045 19.0393 16.2894 18.9966 16.1464 18.8535ZM16 6L16 17.293L12.3536 13.6465C12.1583 13.4512 11.8417 13.4512 11.6464 13.6465L8 17.293L8 6L16 6Z" clip-rule="evenodd" fill="currentColor" fill-opacity="1" fill-rule="evenodd"/>
	</g>
</svg>
