<svg width="200px" height="200px" viewBox="0 0 24 24" fill="none" xmlns="http://www.w3.org/2000/svg" xmlns:xlink="http://www.w3.org/1999/xlink" opacity="1">
	<desc>
			Created with Pixso.
	</desc>
	<defs>
		<clipPath id="clip171_594">
			<rect id="前一帧" width="24.000000" height="24.000000" fill="currentColor"/>
		</clipPath>
	</defs>
	<g clip-path="url(#clip171_594)">
		<path id="Mask" d="M5.22307 11.917C5.08406 11.824 5.00006 11.668 5.00006 11.501C5.00006 11.334 5.08507 11.178 5.22406 11.085L14.2241 5.08401C14.3781 4.98101 14.5751 4.97201 14.7371 5.05901C14.8991 5.14601 15.0001 5.31501 15.0001 5.50001L15.0001 17.5C15.0001 17.685 14.8991 17.854 14.7371 17.941C14.6631 17.98 14.5831 18 14.5011 18C14.4051 18 14.3081 17.972 14.2241 17.916L5.22307 11.917ZM16.5001 4.99999C16.7761 4.99999 17.0001 5.24299 17.0001 5.54199L17.0001 17.459C17.0001 17.758 16.7761 18.001 16.5001 18.001C16.2241 18.001 16.0001 17.758 16.0001 17.459L16.0001 5.54199C16.0001 5.24299 16.2241 4.99999 16.5001 4.99999ZM6.40106 11.501L14.0001 6.43499L14.0001 16.566L6.40106 11.501Z" clip-rule="evenodd" fill-rule="evenodd" fill="currentColor" fill-opacity="1"/>
	</g>
</svg>
