<svg width="24.000000" height="24.000000" viewBox="0 0 24 24" fill="none" xmlns="http://www.w3.org/2000/svg" xmlns:xlink="http://www.w3.org/1999/xlink">
	<desc>
			Created with Pixso.
	</desc>
	<defs/>
	<path id="icon" d="M8.25436 12.0013L12.8249 7.87315C13.0403 7.6898 13.0596 7.37397 12.8682 7.16772C12.6768 6.96146 12.347 6.94288 12.1316 7.12622L7.21014 11.5532C6.95169 11.7732 6.92844 12.1522 7.15814 12.3997C7.18314 12.4256 7.18314 12.4256 7.21014 12.4495L12.0638 16.8738C12.2791 17.0571 12.6089 17.0385 12.8004 16.8323C12.9918 16.626 12.9724 16.3102 12.757 16.1269L8.25436 12.0013ZM16.8249 7.87315L12.2544 12.0013L16.757 16.1269C16.9724 16.3102 16.9918 16.626 16.8004 16.8323C16.6089 17.0385 16.2791 17.0571 16.0638 16.8738L11.2101 12.4495C11.1831 12.4256 11.1831 12.4256 11.1581 12.3997C10.9284 12.1522 10.9517 11.7732 11.2101 11.5532L16.1316 7.12622C16.347 6.94288 16.6768 6.96146 16.8682 7.16772C17.0596 7.37397 17.0403 7.6898 16.8249 7.87315Z" clip-rule="evenodd" fill-rule="evenodd" fill="currentColor" fill-opacity="1"/>
</svg>
