<svg width="24.000000" height="24.000000" viewBox="0 0 24 24" fill="none" xmlns="http://www.w3.org/2000/svg" xmlns:xlink="http://www.w3.org/1999/xlink">
	<desc>
			Created with Pixso.
	</desc>
	<defs/>
	<path id="icon" d="M11.9996 17L11.9996 12.9495C9.62634 12.6843 7.87363 10.6113 8.0065 8.22705C8.13937 5.84253 10.1116 3.97729 12.4996 3.97729C14.8876 3.97729 16.8598 5.84253 16.9927 8.22705C17.1255 10.6113 15.3729 12.6843 12.9996 12.9495L12.9996 17L11.9996 17ZM12.4985 5C13.9141 5 15.1904 5.85254 15.7321 7.1604C16.2739 8.46826 15.9745 9.97363 14.9735 10.9749C13.9725 11.9758 12.4671 12.2751 11.1592 11.7336C9.85135 11.1919 8.9986 9.91553 8.9986 8.5C8.9986 6.56689 10.5656 5 12.4985 5ZM19.8528 18.1462C19.8992 18.1929 19.936 18.248 19.961 18.3091C20.0247 18.4631 20.0074 18.6389 19.9147 18.7776C19.8221 18.9165 19.6664 18.9998 19.4995 19L5.49954 19C5.29761 18.9993 5.11584 18.8774 5.03864 18.6909C4.9614 18.5042 5.00381 18.2896 5.14621 18.1462L8.14603 15.1465C8.34183 14.9546 8.65561 14.9563 8.84949 15.1501C9.04333 15.344 9.04489 15.6577 8.85303 15.8535L6.70654 18L18.2925 18L16.1461 15.8535C15.9542 15.6577 15.9558 15.344 16.1496 15.1501C16.3435 14.9563 16.6573 14.9546 16.8531 15.1465L19.8528 18.1462Z" clip-rule="evenodd" fill-rule="evenodd" fill="currentColor" fill-opacity="1"/>
</svg>
