<svg width="20.000000" height="20.000000" viewBox="0 0 20 20" fill="none" xmlns="http://www.w3.org/2000/svg" xmlns:xlink="http://www.w3.org/1999/xlink">
	<desc>
			Created with Pixso.
	</desc>
	<defs/>
	<mask id="mask_406_2966" fill="white">
		<path id="color" d="M5.17041 11.6667L7.47607 11.6667L4.98804 14.1667L2.50012 11.6667L4.32129 11.6667C4.23975 11.2629 4.1969 10.8447 4.1969 10.4167C4.1969 6.96509 6.98157 4.16675 10.4167 4.16675C11.64 4.16675 12.7808 4.52148 13.7427 5.13428L13.1393 5.74072C12.3403 5.27002 11.4099 5 10.4167 5C7.4397 5 5.02625 7.42529 5.02625 10.4167C5.02625 10.8469 5.07605 11.2654 5.17041 11.6667ZM13.3574 9.16675L15.6631 9.16675C15.7574 9.56812 15.8074 9.98657 15.8074 10.4167C15.8074 13.4082 13.3939 15.8335 10.4167 15.8335C9.42358 15.8335 8.49316 15.5635 7.69421 15.0928L7.09082 15.6992C8.05273 16.312 9.19348 16.6667 10.4167 16.6667C13.8519 16.6667 16.6367 13.8684 16.6367 10.4167C16.6367 9.98877 16.5939 9.57056 16.5122 9.16675L18.3334 9.16675L15.8455 6.66675L13.3574 9.16675Z" clip-rule="evenodd" fill="" fill-opacity="1.000000" fill-rule="evenodd"/>
	</mask>
	<path id="color" d="M5.17041 11.6667L7.47607 11.6667L4.98804 14.1667L2.50012 11.6667L4.32129 11.6667C4.23975 11.2629 4.1969 10.8447 4.1969 10.4167C4.1969 6.96509 6.98157 4.16675 10.4167 4.16675C11.64 4.16675 12.7808 4.52148 13.7427 5.13428L13.1393 5.74072C12.3403 5.27002 11.4099 5 10.4167 5C7.4397 5 5.02625 7.42529 5.02625 10.4167C5.02625 10.8469 5.07605 11.2654 5.17041 11.6667ZM13.3574 9.16675L15.6631 9.16675C15.7574 9.56812 15.8074 9.98657 15.8074 10.4167C15.8074 13.4082 13.3939 15.8335 10.4167 15.8335C9.42358 15.8335 8.49316 15.5635 7.69421 15.0928L7.09082 15.6992C8.05273 16.312 9.19348 16.6667 10.4167 16.6667C13.8519 16.6667 16.6367 13.8684 16.6367 10.4167C16.6367 9.98877 16.5939 9.57056 16.5122 9.16675L18.3334 9.16675L15.8455 6.66675L13.3574 9.16675Z" clip-rule="evenodd" fill="currentColor" fill-opacity="1.000000" fill-rule="evenodd" mask="url(#mask_406_2966)"/>
	<path id="color" d="" clip-rule="evenodd" fill="#979797" fill-opacity="0.000000" fill-rule="evenodd"/>
</svg>
