<svg width="24.000000" height="24.000000" viewBox="0 0 24 24" fill="none" xmlns="http://www.w3.org/2000/svg" xmlns:xlink="http://www.w3.org/1999/xlink">
	<desc>
			Created with Pixso.
	</desc>
	<defs/>
	<path id="path" d="M14.356 9.1051L12.9073 4.65759C12.6217 3.78088 11.3782 3.78076 11.0927 4.65759L9.64398 9.1051L4.95581 9.1051C4.03168 9.1051 3.64743 10.2847 4.39508 10.8265L8.18787 13.5752L6.73917 18.0227C6.45358 18.8994 7.45953 19.6285 8.20718 19.0867L12 16.3379L15.7928 19.0867C16.5404 19.6285 17.5464 18.8994 17.2609 18.0227L15.8121 13.5752L19.6049 10.8265C20.3526 10.2847 19.9684 9.1051 19.0442 9.1051L14.356 9.1051ZM12 5.10095L10.37 10.1051L5.10364 10.1051L9.3642 13.1926L7.73517 18.1937L12 15.1029L16.2649 18.1938L14.6358 13.1926L18.8964 10.1051L13.63 10.1051L12 5.10095Z" fill-rule="evenodd" fill="currentColor" fill-opacity="1"/>
</svg>
