<svg width="24.000000" height="24.000000" viewBox="0 0 24 24" fill="none" xmlns="http://www.w3.org/2000/svg" xmlns:xlink="http://www.w3.org/1999/xlink">
	<desc>
			Created with Pixso.
	</desc>
	<defs/>
	<path id="Color" d="M18 11.5C18.002 11.4685 18 11.437 17.9941 11.4058C17.9863 11.3708 17.9746 11.3372 17.959 11.3049C17.9531 11.2839 17.9453 11.2632 17.9375 11.2432C17.9336 11.2368 17.9277 11.2336 17.9219 11.2278C17.8809 11.1765 17.834 11.1294 17.7812 11.0867C17.7754 11.0825 17.7715 11.0754 17.7656 11.0713L7.76562 5.07129C7.75586 5.06543 7.74414 5.06543 7.73438 5.06006C7.67383 5.03345 7.60938 5.01538 7.54297 5.00684C7.53125 5.0061 7.51953 5 7.50781 5C7.48828 5.00269 7.46875 5.00659 7.44922 5.01172C7.41602 5.01514 7.38281 5.02173 7.35156 5.03149C7.29297 5.05371 7.23828 5.08472 7.1875 5.12378C7.16211 5.14697 7.13867 5.17285 7.11719 5.20117C7.10352 5.21436 7.0918 5.22827 7.08008 5.24316C7.07422 5.25293 7.07422 5.2644 7.06836 5.27441C7.05469 5.30469 7.04297 5.33618 7.03516 5.36865C7.02344 5.40063 7.01562 5.43359 7.00977 5.46729C7.00977 5.47876 7 5.48828 7 5.5L7 17.5C7 17.5117 7.00977 17.5212 7.00977 17.5327C7.02148 17.5991 7.03906 17.6641 7.06641 17.7256C7.07227 17.7356 7.07227 17.7468 7.07812 17.7568C7.08594 17.7688 7.09961 17.7734 7.10742 17.7844C7.14258 17.8335 7.18555 17.8755 7.23633 17.9084C7.25195 17.9209 7.26953 17.9321 7.28711 17.9424C7.42773 18.0215 7.60156 18.019 7.74023 17.9358C7.74805 17.9314 7.75781 17.9333 7.76562 17.9287L17.7656 11.9287C17.8301 11.8887 17.8848 11.834 17.9238 11.769C17.9277 11.7639 17.9336 11.762 17.9375 11.7568C17.9453 11.7368 17.9531 11.7161 17.959 11.6951C17.9746 11.6628 17.9863 11.6292 17.9941 11.5942C18 11.563 18.002 11.5315 18 11.5L18 11.5Z" fill-rule="evenodd" fill="currentColor" fill-opacity="1"/>
	<mask id="mask1318_2451" mask-type="alpha" maskUnits="userSpaceOnUse" x="7.000000" y="5.000000" width="11.000407" height="12.999988">
		<path id="Color" d="M18 11.5C18.002 11.4685 18 11.437 17.9941 11.4058C17.9863 11.3708 17.9746 11.3372 17.959 11.3049C17.9531 11.2839 17.9453 11.2632 17.9375 11.2432C17.9336 11.2368 17.9277 11.2336 17.9219 11.2278C17.8809 11.1765 17.834 11.1294 17.7812 11.0867C17.7754 11.0825 17.7715 11.0754 17.7656 11.0713L7.76562 5.07129C7.75586 5.06543 7.74414 5.06543 7.73438 5.06006C7.67383 5.03345 7.60938 5.01538 7.54297 5.00684C7.53125 5.0061 7.51953 5 7.50781 5C7.48828 5.00269 7.46875 5.00659 7.44922 5.01172C7.41602 5.01514 7.38281 5.02173 7.35156 5.03149C7.29297 5.05371 7.23828 5.08472 7.1875 5.12378C7.16211 5.14697 7.13867 5.17285 7.11719 5.20117C7.10352 5.21436 7.0918 5.22827 7.08008 5.24316C7.07422 5.25293 7.07422 5.2644 7.06836 5.27441C7.05469 5.30469 7.04297 5.33618 7.03516 5.36865C7.02344 5.40063 7.01562 5.43359 7.00977 5.46729C7.00977 5.47876 7 5.48828 7 5.5L7 17.5C7 17.5117 7.00977 17.5212 7.00977 17.5327C7.02148 17.5991 7.03906 17.6641 7.06641 17.7256C7.07227 17.7356 7.07227 17.7468 7.07812 17.7568C7.08594 17.7688 7.09961 17.7734 7.10742 17.7844C7.14258 17.8335 7.18555 17.8755 7.23633 17.9084C7.25195 17.9209 7.26953 17.9321 7.28711 17.9424C7.42773 18.0215 7.60156 18.019 7.74023 17.9358C7.74805 17.9314 7.75781 17.9333 7.76562 17.9287L17.7656 11.9287C17.8301 11.8887 17.8848 11.834 17.9238 11.769C17.9277 11.7639 17.9336 11.762 17.9375 11.7568C17.9453 11.7368 17.9531 11.7161 17.959 11.6951C17.9746 11.6628 17.9863 11.6292 17.9941 11.5942C18 11.563 18.002 11.5315 18 11.5L18 11.5Z" fill-rule="evenodd" fill="#C4C4C4"/>
	</mask>
</svg>
