<svg width="24.000000" height="24.000000" viewBox="0 0 24 24" fill="none" xmlns="http://www.w3.org/2000/svg" xmlns:xlink="http://www.w3.org/1999/xlink">
	<desc>
			Created with Pixso.
	</desc>
	<defs/>
	<path id="Color" d="M5 12.5C4.99995 8.35791 8.35776 5 12.4999 5C14.489 5 16.3967 5.79004 17.8033 7.19678C19.2098 8.60327 20 10.5107 20 12.5C20 16.6421 16.6422 20 12.5 20C8.35792 20 5.00005 16.6421 5 12.5ZM12.4999 19C8.91004 19 5.99995 16.0898 6 12.5C6.00005 8.91016 8.9102 6 12.5 6C16.0899 6 19 8.91016 19 12.5C19 14.2239 18.3152 15.8772 17.0962 17.0962C15.8771 18.3152 14.2238 19 12.4999 19ZM9.00006 12.5C9.00002 10.5671 10.567 9 12.4999 9C13.4282 9 14.3185 9.36865 14.9749 10.0251C15.6313 10.6814 16.0001 11.5718 16.0001 12.5C16.0001 14.4329 14.4331 16 12.5001 16C10.5671 16 9.00011 14.4331 9.00006 12.5Z" clip-rule="evenodd" fill-rule="evenodd" fill="currentColor" fill-opacity="1.000000"/>
</svg>
