<svg width="24.000000" height="24.000000" viewBox="0 0 24 24" fill="none" xmlns="http://www.w3.org/2000/svg" xmlns:xlink="http://www.w3.org/1999/xlink">
	<desc>
			Created with Pixso.
	</desc>
	<defs/>
	<path id="Color" d="M1.5 3L22.5 3L22.5 21L1.5 21L1.5 3ZM2.5 4L2.5 20L21.5 20L21.5 4L2.5 4ZM3.5 5L8.5 5L8.5 9L3.5 9L3.5 5ZM9.5 5L14.5 5L14.5 9L9.5 9L9.5 5ZM15.5 5L20.5 5L20.5 9L15.5 9L15.5 5ZM3.5 10L8.5 10L8.5 14L3.5 14L3.5 10ZM9.5 10L14.5 10L14.5 14L9.5 14L9.5 10ZM15.5 10L20.5 10L20.5 14L15.5 14L15.5 10ZM3.5 15L8.5 15L8.5 19L3.5 19L3.5 15ZM9.5 15L14.5 15L14.5 19L9.5 19L9.5 15ZM15.5 15L20.5 15L20.5 19L15.5 19L15.5 15Z" clip-rule="evenodd" fill-rule="evenodd" fill="currentColor" fill-opacity="1.000000"/>
</svg>
