<svg width="42.000000" height="42.000000" viewBox="0 0 42 42" fill="none" xmlns="http://www.w3.org/2000/svg" xmlns:xlink="http://www.w3.org/1999/xlink">
	<desc>
			Created with Pixso.
	</desc>
	<defs/>
	<rect id="Rectangle-2-Copy-41" x="0.500000" y="0.500000" width="41.000000" height="41.000000" stroke="#D7D7D7" stroke-opacity="1.000000" stroke-width="1.000000"/>
	<path id="Combined-Shape" d="M31.457 25.6285L25.6284 25.6285L25.6284 31.4572L31.457 31.4572L31.457 25.6285ZM33.1714 25.6285L33.1714 31.4572L39 31.4572L39 25.6285L33.1714 25.6285ZM31.457 39L31.457 33.1714L25.6284 33.1714L25.6284 39L31.457 39ZM33.1714 39L39 39L39 33.1714L33.1714 33.1714L33.1714 39ZM31.457 18.0857L25.6284 18.0857L25.6284 23.9143L31.457 23.9143L31.457 18.0857ZM33.1714 18.0857L33.1714 23.9143L39 23.9143L39 18.0857L33.1714 18.0857ZM31.457 10.5428L25.6284 10.5428L25.6284 16.3715L31.457 16.3715L31.457 10.5428ZM33.1714 10.5428L33.1714 16.3715L39 16.3715L39 10.5428L33.1714 10.5428ZM31.457 3L25.6284 3L25.6284 8.82861L31.457 8.82861L31.457 3ZM33.1714 3L33.1714 8.82861L39 8.82861L39 3L33.1714 3ZM23.9141 25.6285L18.0859 25.6285L18.0859 31.4572L23.9141 31.4572L23.9141 25.6285ZM23.9141 39L23.9141 33.1714L18.0859 33.1714L18.0859 39L23.9141 39ZM23.9141 18.0857L18.0859 18.0857L18.0859 23.9143L23.9141 23.9143L23.9141 18.0857ZM23.9141 10.5428L18.0859 10.5428L18.0859 16.3715L23.9141 16.3715L23.9141 10.5428ZM23.9141 3L18.0859 3L18.0859 8.82861L23.9141 8.82861L23.9141 3ZM16.3716 25.6285L10.543 25.6285L10.543 31.4572L16.3716 31.4572L16.3716 25.6285ZM16.3716 39L16.3716 33.1714L10.543 33.1714L10.543 39L16.3716 39ZM16.3716 18.0857L10.543 18.0857L10.543 23.9143L16.3716 23.9143L16.3716 18.0857ZM16.3716 10.5428L10.543 10.5428L10.543 16.3715L16.3716 16.3715L16.3716 10.5428ZM16.3716 3L10.543 3L10.543 8.82861L16.3716 8.82861L16.3716 3ZM8.82861 25.6285L3 25.6285L3 31.4572L8.82861 31.4572L8.82861 25.6285ZM8.82861 39L8.82861 33.1714L3 33.1714L3 39L8.82861 39ZM8.82861 18.0857L3 18.0857L3 23.9143L8.82861 23.9143L8.82861 18.0857ZM8.82861 10.5428L3 10.5428L3 16.3715L8.82861 16.3715L8.82861 10.5428ZM8.82861 3L3 3L3 8.82861L8.82861 8.82861L8.82861 3Z" clip-rule="evenodd" fill="#D2D2D2" fill-opacity="1.000000" fill-rule="evenodd"/>
	<path id="25" d="M10.0249 29C10.0898 27.7955 10.3389 26.7474 10.772 25.8555C11.2051 24.9635 12.0498 24.153 13.3062 23.4238L15.1812 22.3398C16.021 21.8516 16.6104 21.4349 16.9487 21.0898C17.4824 20.5494 17.7495 19.931 17.7495 19.2344C17.7495 18.4205 17.5054 17.7744 17.0171 17.2959C16.5288 16.8174 15.8779 16.5781 15.064 16.5781C13.8594 16.5781 13.0264 17.0338 12.564 17.9453C12.3164 18.4336 12.1797 19.1107 12.1538 19.9766L10.3667 19.9766C10.3862 18.7592 10.6108 17.7662 11.0405 16.998C11.8022 15.6439 13.1465 14.9668 15.0737 14.9668C16.6753 14.9668 17.8457 15.3998 18.5845 16.2656C19.3232 17.1315 19.6929 18.0951 19.6929 19.1562C19.6929 20.276 19.2988 21.233 18.5112 22.0273C18.0557 22.4896 17.2383 23.0494 16.0601 23.707L14.7222 24.4492C14.084 24.8008 13.583 25.1361 13.2183 25.4551C12.5674 26.0215 12.1572 26.6498 11.9878 27.3398L19.6245 27.3398L19.6245 29L10.0249 29ZM24.3901 27.5156C23.5762 27.1315 23.1108 26.4381 22.9937 25.4355L21.1675 25.4355C21.2715 26.7637 21.7617 27.7484 22.6372 28.3896C23.5127 29.0309 24.5205 29.3516 25.6597 29.3516C27.4502 29.3516 28.7539 28.847 29.5708 27.8379C30.3877 26.8287 30.7964 25.6635 30.7964 24.3418C30.7964 23.0723 30.3506 22.024 29.4585 21.1973C28.5664 20.3705 27.4795 19.957 26.1968 19.957C25.5132 19.957 24.9111 20.0645 24.3901 20.2793C24.0972 20.403 23.7881 20.5885 23.4624 20.8359L24.0581 16.9492L30.0054 16.9492L30.0054 15.25L22.7397 15.25L21.6753 22.7793L23.1987 22.8672C23.5049 22.4506 23.874 22.125 24.3071 21.8906C24.7402 21.6562 25.2593 21.5391 25.8647 21.5391C26.6982 21.5391 27.4126 21.806 28.0083 22.3398C28.604 22.8737 28.9019 23.6289 28.9019 24.6055C28.9019 25.4127 28.6514 26.1484 28.1499 26.8125C27.6484 27.4766 26.877 27.8086 25.8354 27.8086C25.2886 27.8086 24.8066 27.7109 24.3901 27.5156Z" clip-rule="evenodd" fill="#000000" fill-opacity="1.000000" fill-rule="evenodd"/>
	<path id="25" d="M10.0249 29C10.0898 27.7955 10.3389 26.7474 10.772 25.8555C11.2051 24.9635 12.0498 24.153 13.3062 23.4238L15.1812 22.3398C16.021 21.8516 16.6104 21.4349 16.9487 21.0898C17.4824 20.5494 17.7495 19.931 17.7495 19.2344C17.7495 18.4205 17.5054 17.7744 17.0171 17.2959C16.5288 16.8174 15.8779 16.5781 15.064 16.5781C13.8594 16.5781 13.0264 17.0338 12.564 17.9453C12.3164 18.4336 12.1797 19.1107 12.1538 19.9766L10.3667 19.9766C10.3862 18.7592 10.6108 17.7662 11.0405 16.998C11.8022 15.6439 13.1465 14.9668 15.0737 14.9668C16.6753 14.9668 17.8457 15.3998 18.5845 16.2656C19.3232 17.1315 19.6929 18.0951 19.6929 19.1562C19.6929 20.276 19.2988 21.233 18.5112 22.0273C18.0557 22.4896 17.2383 23.0494 16.0601 23.707L14.7222 24.4492C14.084 24.8008 13.583 25.1361 13.2183 25.4551C12.5674 26.0215 12.1572 26.6498 11.9878 27.3398L19.6245 27.3398L19.6245 29L10.0249 29ZM24.3901 27.5156C23.5762 27.1315 23.1108 26.4381 22.9937 25.4355L21.1675 25.4355C21.2715 26.7637 21.7617 27.7484 22.6372 28.3896C23.5127 29.0309 24.5205 29.3516 25.6597 29.3516C27.4502 29.3516 28.7539 28.847 29.5708 27.8379C30.3877 26.8287 30.7964 25.6635 30.7964 24.3418C30.7964 23.0723 30.3506 22.024 29.4585 21.1973C28.5664 20.3705 27.4795 19.957 26.1968 19.957C25.5132 19.957 24.9111 20.0645 24.3901 20.2793C24.0972 20.403 23.7881 20.5885 23.4624 20.8359L24.0581 16.9492L30.0054 16.9492L30.0054 15.25L22.7397 15.25L21.6753 22.7793L23.1987 22.8672C23.5049 22.4506 23.874 22.125 24.3071 21.8906C24.7402 21.6562 25.2593 21.5391 25.8647 21.5391C26.6982 21.5391 27.4126 21.806 28.0083 22.3398C28.604 22.8737 28.9019 23.6289 28.9019 24.6055C28.9019 25.4127 28.6514 26.1484 28.1499 26.8125C27.6484 27.4766 26.877 27.8086 25.8354 27.8086C25.2886 27.8086 24.8066 27.7109 24.3901 27.5156Z" clip-rule="evenodd" fill="#333333" fill-opacity="1.000000" fill-rule="evenodd"/>
</svg>
