<svg width="42.000000" height="42.000000" viewBox="0 0 42 42" fill="none" xmlns="http://www.w3.org/2000/svg" xmlns:xlink="http://www.w3.org/1999/xlink">
	<desc>
			Created with Pixso.
	</desc>
	<defs/>
	<rect id="Rectangle-2-Copy-39" x="0.500000" y="0.500000" width="41.000000" height="41.000000" stroke="currentColor" stroke-opacity="1.000000" stroke-width="1.000000"/>
	<path id="Combined-Shape" d="M15.4285 13.7142L15.4285 3L26.5715 3L26.5715 13.7142L15.4285 13.7142ZM15.4285 15.4286L26.5715 15.4286L26.5715 26.5714L15.4285 26.5714L15.4285 15.4286ZM39 13.7142L28.2856 13.7142L28.2856 3L39 3L39 13.7142ZM39 15.4286L39 26.5714L28.2856 26.5714L28.2856 15.4286L39 15.4286ZM3 13.7142L3 3L13.7144 3L13.7144 13.7142L3 13.7142ZM3 15.4286L13.7144 15.4286L13.7144 26.5714L3 26.5714L3 15.4286ZM26.5715 39L15.4285 39L15.4285 28.2858L26.5715 28.2858L26.5715 39ZM28.2856 39L28.2856 28.2858L39 28.2858L39 39L28.2856 39ZM13.7144 39L3 39L3 28.2858L13.7144 28.2858L13.7144 39Z" clip-rule="evenodd" fill="currentColor" fill-opacity="1.000000" fill-rule="evenodd"/>
	<path id="9" d="M17.8562 25.6211C17.9082 26.5912 18.2827 27.2617 18.9792 27.6328C19.3374 27.8281 19.741 27.9258 20.1902 27.9258C21.03 27.9258 21.7461 27.5758 22.3386 26.876C22.9312 26.1761 23.3511 24.7552 23.5984 22.6133C23.2078 23.2318 22.7244 23.6664 22.1482 23.917C21.572 24.1676 20.9519 24.293 20.2878 24.293C18.9402 24.293 17.874 23.873 17.0896 23.0332C16.3052 22.1934 15.9128 21.1127 15.9128 19.791C15.9128 18.5215 16.3003 17.4049 17.075 16.4414C17.8496 15.4779 18.9922 14.9961 20.5027 14.9961C22.5405 14.9961 23.9468 15.9141 24.7214 17.75C25.1511 18.7592 25.366 20.0221 25.366 21.5391C25.366 23.2513 25.1089 24.7682 24.5945 26.0898C23.7417 28.2904 22.2964 29.3906 20.2585 29.3906C18.8914 29.3906 17.853 29.0326 17.1433 28.3164C16.4336 27.6002 16.0789 26.7018 16.0789 25.6211L17.8562 25.6211ZM22.4314 22.0615C21.8552 22.5205 21.2188 22.75 20.5222 22.75C19.5522 22.75 18.8457 22.4814 18.4031 21.9443C17.9604 21.4072 17.739 20.683 17.739 19.7715C17.739 18.808 17.9912 18.0381 18.4958 17.4619C19.0005 16.8857 19.6824 16.5977 20.5417 16.5977C21.3425 16.5977 22.0017 16.85 22.5193 17.3545C23.0369 17.859 23.2957 18.6256 23.2957 19.6543C23.2957 20.8002 23.0076 21.6025 22.4314 22.0615Z" clip-rule="evenodd" fill="#000000" fill-opacity="1.000000" fill-rule="evenodd"/>
	<path id="9" d="M17.8562 25.6211C17.9082 26.5912 18.2827 27.2617 18.9792 27.6328C19.3374 27.8281 19.741 27.9258 20.1902 27.9258C21.03 27.9258 21.7461 27.5758 22.3386 26.876C22.9312 26.1761 23.3511 24.7552 23.5984 22.6133C23.2078 23.2318 22.7244 23.6664 22.1482 23.917C21.572 24.1676 20.9519 24.293 20.2878 24.293C18.9402 24.293 17.874 23.873 17.0896 23.0332C16.3052 22.1934 15.9128 21.1127 15.9128 19.791C15.9128 18.5215 16.3003 17.4049 17.075 16.4414C17.8496 15.4779 18.9922 14.9961 20.5027 14.9961C22.5405 14.9961 23.9468 15.9141 24.7214 17.75C25.1511 18.7592 25.366 20.0221 25.366 21.5391C25.366 23.2513 25.1089 24.7682 24.5945 26.0898C23.7417 28.2904 22.2964 29.3906 20.2585 29.3906C18.8914 29.3906 17.853 29.0326 17.1433 28.3164C16.4336 27.6002 16.0789 26.7018 16.0789 25.6211L17.8562 25.6211ZM22.4314 22.0615C21.8552 22.5205 21.2188 22.75 20.5222 22.75C19.5522 22.75 18.8457 22.4814 18.4031 21.9443C17.9604 21.4072 17.739 20.683 17.739 19.7715C17.739 18.808 17.9912 18.0381 18.4958 17.4619C19.0005 16.8857 19.6824 16.5977 20.5417 16.5977C21.3425 16.5977 22.0017 16.85 22.5193 17.3545C23.0369 17.859 23.2957 18.6256 23.2957 19.6543C23.2957 20.8002 23.0076 21.6025 22.4314 22.0615Z" clip-rule="evenodd" fill="#333333" fill-opacity="1.000000" fill-rule="evenodd"/>
</svg>
