<svg width="24.000000" height="24.000000" viewBox="0 0 24 24" fill="none" xmlns="http://www.w3.org/2000/svg" xmlns:xlink="http://www.w3.org/1999/xlink">
	<desc>
			Created with Pixso.
	</desc>
	<defs>
		<clipPath id="clip11669_205869">
			<rect id="svg" width="24.000000" height="24.000000" fill="white" fill-opacity="0"/>
		</clipPath>
	</defs>
	<g clip-path="url(#clip11669_205869)">
		<path id="Combined-Shape" d="M12 5.01L6 8.5L6 15.49L12 18.98L17.99 15.49L17.99 8.5L12 5.01ZM12.5 4.13L18.49 7.62C18.8 7.8 19 8.14 19 8.5L19 15.49C19 15.85 18.8 16.19 18.49 16.37L12.5 19.86C12.19 20.04 11.8 20.04 11.49 19.86L5.5 16.37C5.19 16.19 5 15.85 5 15.49L5 8.5C5 8.14 5.19 7.8 5.5 7.62L11.49 4.13C11.8 3.95 12.19 3.95 12.5 4.13ZM15.24 9.01C15.85 8.68 16.38 9.54 15.76 9.86L12.55 11.59L12.56 15.58C12.56 15.85 12.33 16.07 12.03 16.07C11.74 16.07 11.5 15.85 11.5 15.58L11.5 11.65L8.23 9.91C7.61 9.59 8.14 8.74 8.75 9.06L11.97 10.77L15.24 9.01Z" fill="currentColor" fill-opacity="1.000000" fill-rule="evenodd"/>
		<path id="Combined-Shape" d="M6 8.5L6 15.49L12 18.98L17.99 15.49L17.99 8.5L12 5.01L6 8.5ZM18.49 7.62C18.8 7.8 19 8.14 19 8.5L19 15.49C19 15.85 18.8 16.19 18.49 16.37L12.5 19.86C12.19 20.04 11.8 20.04 11.49 19.86L5.5 16.37C5.19 16.19 5 15.85 5 15.49L5 8.5C5 8.14 5.19 7.8 5.5 7.62L11.49 4.13C11.8 3.95 12.19 3.95 12.5 4.13L18.49 7.62ZM15.76 9.86L12.55 11.59L12.56 15.58C12.56 15.85 12.33 16.07 12.03 16.07C11.74 16.07 11.5 15.85 11.5 15.58L11.5 11.65L8.23 9.91C7.61 9.59 8.14 8.74 8.75 9.06L11.97 10.77L15.24 9.01C15.85 8.68 16.38 9.54 15.76 9.86Z" stroke="#000000" stroke-opacity="0" stroke-width="1.000000"/>
	</g>
</svg>
