<svg width="24.000000" height="24.000000" viewBox="0 0 24 24" fill="none" xmlns="http://www.w3.org/2000/svg" xmlns:xlink="http://www.w3.org/1999/xlink">
	<desc>
			Created with Pixso.
	</desc>
	<defs/>
	<path id="icon" d="M16.707 7L19 7C19.5523 7 20 7.44775 20 8L20 17C20 17.5522 19.5523 18 19 18L5 18C4.44771 18 4 17.5522 4 17L4 8C4 7.44775 4.44771 7 5 7L7.293 7L9.14636 5.14673C9.24055 5.05347 9.36749 5.00073 9.5 5L14.5 5C14.6326 5.00073 14.7596 5.05347 14.8538 5.14673L16.707 7ZM5 17L5 8L7.5 8C7.63263 8.00024 7.75987 7.94751 7.85352 7.85352L9.707 6L14.293 6L16.1465 7.85352C16.2402 7.94751 16.3674 8.00024 16.5 8L19 8L19 17L5 17ZM12 8C9.79086 8 8 9.79077 8 12C8 14.2092 9.79086 16 12 16C14.2091 16 16 14.2092 16 12C16 10.9392 15.5786 9.92163 14.8284 9.17163C14.0783 8.42139 13.0609 8 12 8ZM12 15C10.3431 15 9 13.6567 9 12C9 10.3433 10.3431 9 12 9C13.6569 9 15 10.3433 15 12C15 12.7957 14.6839 13.5586 14.1213 14.1213C13.5587 14.6838 12.7956 15 12 15ZM10 12C10.0011 10.896 10.8959 10.0012 12 10C12.2761 10 12.5 10.2239 12.5 10.5C12.5 10.7761 12.2761 11 12 11C11.448 11.0007 11.0007 11.448 11 12C11 12.2761 10.7761 12.5 10.5 12.5C10.2239 12.5 10 12.2761 10 12Z" clip-rule="evenodd" fill-rule="evenodd" fill="currentColor" fill-opacity="1"/>
</svg>
