<svg width="200px" height="200px" viewBox="0 0 24 24" fill="none" xmlns="http://www.w3.org/2000/svg" xmlns:xlink="http://www.w3.org/1999/xlink">
	<desc>
			Created with Pixso.
	</desc>
	<defs>
		<clipPath id="clip158_5953">
			<rect id="关闭所有窗口" width="24.000000" height="24.000000" fill="currentColor"/>
		</clipPath>
	</defs>
	<g clip-path="url(#clip158_5953)">
		<path id="Mask" d="M15.0001 6L16.0001 6L16.0001 5C16.0001 4.448 15.5321 4 14.9801 4L4.98007 4C4.42706 4 4.00006 4.448 4.00006 5L4.00006 14C4.00006 14.552 4.42706 15 4.98007 15L6.00006 15L6.00006 14L5.00006 14L5.00006 5L15.0001 5L15.0001 6ZM8.00006 18L8.00006 8L19.0001 8L19.0001 11.5C19.0001 11.776 19.2241 12 19.5001 12C19.7761 12 20.0001 11.776 20.0001 11.5L20.0001 8C20.0001 7.448 19.5321 7 18.9801 7L7.98007 7C7.42706 7 7.00006 7.448 7.00006 8L7.00006 18C7.00006 18.552 7.42706 19 7.98007 19L12.5001 19C12.7761 19 13.0001 18.776 13.0001 18.5C13.0001 18.224 12.7761 18 12.5001 18L8.00006 18ZM19.857 14.613L18.089 16.381L19.857 18.149C20.052 18.344 20.052 18.66 19.857 18.856C19.661 19.051 19.345 19.051 19.15 18.856L17.382 17.088L15.613 18.856C15.419 19.051 15.102 19.051 14.906 18.856C14.711 18.66 14.711 18.344 14.906 18.149L16.675 16.381L14.906 14.613C14.711 14.418 14.711 14.101 14.906 13.906C15.102 13.711 15.419 13.711 15.613 13.906L17.382 15.674L19.15 13.906C19.345 13.711 19.662 13.711 19.857 13.906C20.052 14.101 20.052 14.418 19.857 14.613Z" clip-rule="evenodd" fill-rule="evenodd" fill="currentColor" fill-opacity="1"/>
	</g>
</svg>
