<svg width="24.000000" height="24.000000" viewBox="0 0 24 24" fill="none" xmlns="http://www.w3.org/2000/svg" xmlns:xlink="http://www.w3.org/1999/xlink">
	<desc>
			Created with Pixso.
	</desc>
	<defs/>
	<path id="icon" d="M17.8529 17.1426C18.049 17.3387 18.049 17.6567 17.8529 17.8529C17.6567 18.0491 17.3387 18.0491 17.1425 17.8529L12 12.7103L6.85748 17.8529C6.66132 18.0491 6.34326 18.0491 6.14709 17.8529C5.95099 17.6567 5.95099 17.3387 6.14709 17.1426L11.2897 12L6.14709 6.85742C5.95099 6.66125 5.95099 6.34326 6.14709 6.14709C6.34326 5.95093 6.66132 5.95093 6.85748 6.14709L12 11.2897L17.1425 6.14709C17.3387 5.95093 17.6567 5.95093 17.8529 6.14709C18.049 6.34326 18.049 6.66125 17.8529 6.85742L12.7103 12L17.8529 17.1426Z" fill-rule="evenodd" fill="currentColor" fill-opacity="1"/>
</svg>
