<svg width="24.000000" height="24.000000" viewBox="0 0 24 24" fill="none" xmlns="http://www.w3.org/2000/svg" xmlns:xlink="http://www.w3.org/1999/xlink">
	<desc>
			Created with Pixso.
	</desc>
	<defs/>
	<path id="icon" d="M5.14783 5.85422L7.52197 8.22835L6.09039 9.65993C6.05292 9.69743 6.03186 9.74831 6.03186 9.80135C6.03186 9.9118 6.1214 10.0013 6.23181 10.0013L9.99164 10.0013L9.99164 6.24155C9.99164 6.18851 9.97058 6.13763 9.93304 6.10013C9.85498 6.02202 9.72833 6.02202 9.65021 6.10013L8.229 7.52135L5.85388 5.14622C5.65887 4.95122 5.34186 4.95122 5.14685 5.14622C4.95184 5.34222 4.95184 5.65822 5.14783 5.85422ZM16.4789 8.22835L17.9105 9.65993C17.9886 9.73802 17.9886 9.86465 17.9105 9.94276C17.873 9.98027 17.8221 10.0013 17.7691 10.0013L14.0093 10.0013L14.0093 6.24155C14.0093 6.13109 14.0988 6.04155 14.2093 6.04155C14.2623 6.04155 14.3132 6.06262 14.3507 6.10013L15.7719 7.52135L18.147 5.14622C18.342 4.95122 18.6591 4.95122 18.8541 5.14622C19.0491 5.34222 19.0491 5.65822 18.853 5.85422L16.4789 8.22835ZM9.99164 14L6.23181 14C6.17877 14 6.12793 14.021 6.09039 14.0585C6.01233 14.1367 6.01233 14.2633 6.09039 14.3414L7.52197 15.773L5.14783 18.1471C4.95184 18.3431 4.95184 18.6591 5.14685 18.8551C5.34186 19.0501 5.65887 19.0501 5.85388 18.8551L8.229 16.48L9.65021 17.9012C9.68774 17.9387 9.73859 17.9598 9.79163 17.9598C9.9021 17.9598 9.99164 17.8702 9.99164 17.7598L9.99164 14ZM18.853 18.1471C19.0491 18.3431 19.0491 18.6591 18.8541 18.8551C18.6591 19.0501 18.342 19.0501 18.147 18.8551L15.7719 16.48L14.3507 17.9012C14.2726 17.9793 14.1459 17.9793 14.0679 17.9012C14.0303 17.8637 14.0093 17.8128 14.0093 17.7598L14.0093 14L17.7691 14C17.8795 14 17.9691 14.0895 17.9691 14.2C17.9691 14.253 17.948 14.3039 17.9105 14.3414L16.4789 15.773L18.853 18.1471Z" clip-rule="evenodd" fill-rule="evenodd" fill="currentColor" fill-opacity="1"/>
</svg>
