<svg width="24.000000" height="24.000000" viewBox="0 0 24 24" fill="none" xmlns="http://www.w3.org/2000/svg" xmlns:xlink="http://www.w3.org/1999/xlink">
	<desc>
			Created with Pixso.
	</desc>
	<defs/>
	<g opacity="0.000000">
		<rect id="矩形" width="24.000000" height="24.000000" fill="#D8D8D8" fill-opacity="1.000000"/>
		<rect id="矩形" x="0.500000" y="0.500000" width="23.000000" height="23.000000" stroke="#979797" stroke-opacity="0" stroke-width="1.000000"/>
	</g>
	<g opacity="0.700000">
		<path id="形状" d="M4.97217 8.88892L6.91663 8.88892L6.91663 9.86108L4.97217 9.86108L4.97217 11.8057L4 11.8057L4 9.86108C4 9.32422 4.4353 8.88892 4.97217 8.88892ZM16.6389 9.86108L16.6389 11.8057L15.6666 11.8057L15.6666 9.86108L13.7222 9.86108L13.7222 8.88892L15.6666 8.88892C16.2036 8.88892 16.6389 9.32422 16.6389 9.86108ZM4.97217 18.6111C4.4353 18.6111 4 18.1758 4 17.6389L4 15.6943L4.97217 15.6943L4.97217 17.6389L6.91663 17.6389L6.91663 18.6111L4.97217 18.6111ZM16.6389 17.6389C16.6389 18.1758 16.2036 18.6111 15.6666 18.6111L13.7222 18.6111L13.7222 17.6389L15.6666 17.6389L15.6666 15.6943L16.6389 15.6943L16.6389 17.6389ZM7.88892 8.88892L9.83337 8.88892L9.83337 9.86108L7.88892 9.86108L7.88892 8.88892ZM10.8055 8.88892L12.75 8.88892L12.75 9.86108L10.8055 9.86108L10.8055 8.88892ZM7.88892 17.6389L9.83337 17.6389L9.83337 18.6111L7.88892 18.6111L7.88892 17.6389ZM4 12.7778L4.97217 12.7778L4.97217 14.7222L4 14.7222L4 12.7778ZM15.6666 12.7778L16.6389 12.7778L16.6389 14.7222L15.6666 14.7222L15.6666 12.7778ZM10.8055 17.6389L12.75 17.6389L12.75 18.6111L10.8055 18.6111L10.8055 17.6389ZM7.88892 5L18.5834 5C19.1202 5 19.5555 5.4353 19.5555 5.97217L19.5555 13.75C19.5555 14.2869 19.1202 14.7222 18.5834 14.7222L17.6111 14.7222L17.6111 13.75L18.5834 13.75L18.5834 5.97217L7.88892 5.97217L7.88892 7.91675L6.91663 7.91675L6.91663 5.97217C6.91663 5.4353 7.35193 5 7.88892 5Z" clip-rule="evenodd" fill="currentColor" fill-opacity="1.000000" fill-rule="evenodd"/>
	</g>
</svg>
