<svg width="24.000000" height="24.000000" viewBox="0 0 24 24" fill="none" xmlns="http://www.w3.org/2000/svg" xmlns:xlink="http://www.w3.org/1999/xlink">
	<desc>
			Created with Pixso.
	</desc>
	<defs/>
	<g style="mix-blend-mode:normal">
		<path id="icon" d="M15.3002 4.30005L18.7001 7.40015C18.8818 7.58923 18.9885 7.83813 19.0002 8.1001L19.0002 17.0001C19.0181 17.2704 18.9185 17.5353 18.7269 17.7268C18.5353 17.9183 18.2704 18.0179 18.0002 18.0001L17.0002 18.0001L17.0002 19.0001C17.0181 19.2704 16.9185 19.5353 16.7269 19.7268C16.5353 19.9183 16.2704 20.0179 16.0002 20.0001L6.00018 20.0001C5.72986 20.0179 5.46497 19.9183 5.27344 19.7268C5.08191 19.5353 4.9823 19.2704 5.00018 19.0001L5.00018 8.00012C4.9823 7.72974 5.08191 7.46497 5.27344 7.27332C5.46497 7.08179 5.72986 6.98218 6.00018 7.00012L7.00018 7.00012L7.00018 5.00012C6.9823 4.72974 7.08191 4.46497 7.27344 4.27332C7.46497 4.08179 7.72986 3.98218 8.00018 4.00012L14.6002 4.00012C14.8661 3.99292 15.1219 4.10254 15.3002 4.30005ZM13.9999 5L13.9999 8.5C13.991 8.63513 14.0407 8.76758 14.1365 8.8634C14.2323 8.95911 14.3647 9.00891 14.4999 9L17.9999 9L17.9999 17L7.99988 17L7.99988 5L13.9999 5ZM15.0002 5.2998L17.8002 7.99976L15.0002 7.99976L15.0002 5.2998ZM5.99988 19L15.9999 19L15.9999 18L7.99988 18C7.72955 18.0178 7.46472 17.9183 7.27313 17.7267C7.0816 17.5352 6.98199 17.2703 6.99988 17L6.99988 8L5.99988 8L5.99988 19ZM8.99988 8L12.9999 8L12.9999 9L8.99988 9L8.99988 8ZM16.9999 11L8.99988 11L8.99988 12L16.9999 12L16.9999 11ZM8.99988 14L16.9999 14L16.9999 15L8.99988 15L8.99988 14Z" clip-rule="evenodd" fill="currentColor" fill-opacity="0.700000" fill-rule="evenodd"/>
	</g>
</svg>
