<svg width="24.000000" height="24.000000" viewBox="0 0 24 24" fill="none" xmlns="http://www.w3.org/2000/svg" xmlns:xlink="http://www.w3.org/1999/xlink">
	<desc>
			Created with Pixso.
	</desc>
	<defs/>
	<path id="icon" d="M17.0003 10.5005C17.0003 6.91064 14.0901 4.00049 10.5003 4.00049C6.91043 4.00049 4.00027 6.91064 4.00027 10.5005C4.00027 14.0903 6.91043 17.0005 10.5003 17.0005C12.1152 17.0005 13.5926 16.4116 14.7294 15.4368L18.7932 19.5005C18.9884 19.6958 19.305 19.6958 19.5003 19.5005C19.6955 19.3052 19.6955 18.9885 19.5003 18.7935L15.4365 14.7295C16.4113 13.5928 17.0003 12.1155 17.0003 10.5005ZM10.5 5C7.46246 5 5.00003 7.4624 5.00003 10.5C5.00003 13.5376 7.46246 16 10.5 16C13.5376 16 16 13.5376 16 10.5C16 7.4624 13.5376 5 10.5 5ZM11 7.5C11 7.22388 10.7762 7 10.5 7C10.2239 7 10 7.22388 10 7.5L10 10L7.50003 10C7.22388 10 7.00003 10.2239 7.00003 10.5C7.00003 10.7761 7.22388 11 7.50003 11L10 11L10 13.5C10 13.7761 10.2239 14 10.5 14C10.7762 14 11 13.7761 11 13.5L11 11L13.5 11C13.7762 11 14 10.7761 14 10.5C14 10.2239 13.7762 10 13.5 10L11 10L11 7.5Z" clip-rule="evenodd" fill-rule="evenodd" fill="currentColor" fill-opacity="1"/>
</svg>
