<svg width="16.000000" height="16.000000" viewBox="0 0 16 16" fill="none" xmlns="http://www.w3.org/2000/svg" xmlns:xlink="http://www.w3.org/1999/xlink">
	<desc>
			Created with Pixso.
	</desc>
	<defs/>
	<rect id="Rectangle" width="16.000000" height="16.000000" fill="#D8D8D8" fill-opacity="0"/>
	<rect id="Rectangle" x="0.500000" y="0.500000" width="15.000000" height="15.000000" stroke="#979797" stroke-opacity="0" stroke-width="1.000000"/>
	<mask id="mask_1_1661" fill="white">
		<path id="Combined Shape" d="M15.0621 12.4761L8.85168 2.38403C8.46118 1.74951 7.53882 1.74951 7.14832 2.38403L0.937866 12.4761C0.527832 13.1423 1.0072 14 1.78955 14L14.2104 14C14.9928 14 15.472 13.1423 15.0621 12.4761ZM8.89502 5.89502C8.89502 5.40088 8.49426 5 8 5C7.96692 5 7.93396 5.00195 7.90112 5.00562C7.40979 5.06006 7.05579 5.50269 7.11047 5.9939L7.5 9.5C7.526 9.73389 7.71057 9.91846 7.94446 9.94458C8.22058 9.9751 8.46936 9.77612 8.5 9.5L8.88953 5.9939L8.89502 5.89502ZM8 11C8.55225 11 9 11.4478 9 12C9 12.5522 8.55225 13 8 13C7.44775 13 7 12.5522 7 12C7 11.4478 7.44775 11 8 11Z" clip-rule="evenodd" fill="" fill-opacity="1.000000" fill-rule="evenodd"/>
	</mask>
	<path id="Combined Shape" d="M15.0621 12.4761L8.85168 2.38403C8.46118 1.74951 7.53882 1.74951 7.14832 2.38403L0.937866 12.4761C0.527832 13.1423 1.0072 14 1.78955 14L14.2104 14C14.9928 14 15.472 13.1423 15.0621 12.4761ZM8.89502 5.89502C8.89502 5.40088 8.49426 5 8 5C7.96692 5 7.93396 5.00195 7.90112 5.00562C7.40979 5.06006 7.05579 5.50269 7.11047 5.9939L7.5 9.5C7.526 9.73389 7.71057 9.91846 7.94446 9.94458C8.22058 9.9751 8.46936 9.77612 8.5 9.5L8.88953 5.9939L8.89502 5.89502ZM8 11C8.55225 11 9 11.4478 9 12C9 12.5522 8.55225 13 8 13C7.44775 13 7 12.5522 7 12C7 11.4478 7.44775 11 8 11Z" clip-rule="evenodd" fill="currentColor" fill-opacity="1.000000" fill-rule="evenodd" mask="url(#mask_1_1661)"/>
	<path id="Combined Shape" d="" clip-rule="evenodd" fill="#979797" fill-opacity="0.000000" fill-rule="evenodd"/>
</svg>
