<svg width="24.000000" height="24.000000" viewBox="0 0 24 24" fill="none" xmlns="http://www.w3.org/2000/svg" xmlns:xlink="http://www.w3.org/1999/xlink">
	<desc>
			Created with Pixso.
	</desc>
	<defs/>
	<path id="icon" d="M9.8432 9.14735L7.46906 6.77322L8.90063 5.34164C8.93814 5.30414 8.95923 5.25327 8.95923 5.20023C8.95923 5.08977 8.86969 5.00023 8.75922 5.00023L4.99942 5.00023L4.99942 8.76003C4.99942 8.81306 5.02048 8.86394 5.05801 8.90144C5.13611 8.97955 5.26273 8.97955 5.34085 8.90144L6.76205 7.48022L9.13721 9.85535C9.33221 10.0504 9.6492 10.0504 9.84421 9.85535C10.0392 9.65935 10.0392 9.34335 9.8432 9.14735ZM16.388 6.63181L15.0979 5.34164C15.0198 5.26355 15.0198 5.13692 15.0979 5.05881C15.1354 5.0213 15.1863 5.00023 15.2393 5.00023L18.9991 5.00023L18.9991 8.76003C18.9991 8.87048 18.9096 8.96002 18.7991 8.96002C18.7461 8.96002 18.6952 8.93895 18.6577 8.90144L17.2365 7.48022L14.8613 9.85535C14.6663 10.0504 14.3493 10.0504 14.1543 9.85535C13.9593 9.65935 13.9593 9.34335 14.1553 9.14735L16.388 6.91464C16.4662 6.83653 16.4662 6.7099 16.388 6.63181ZM4.99942 19.0016L8.75922 19.0016C8.81226 19.0016 8.86313 18.9805 8.90063 18.943C8.97873 18.8649 8.97873 18.7383 8.90063 18.6602L7.46906 17.2286L9.8432 14.8545C10.0392 14.6585 10.0392 14.3425 9.84421 14.1465C9.6492 13.9515 9.33221 13.9515 9.13721 14.1465L6.76205 16.5216L5.34085 15.1004C5.30334 15.0629 5.25247 15.0418 5.19943 15.0418C5.08896 15.0418 4.99942 15.1313 4.99942 15.2418L4.99942 19.0016ZM14.1553 14.8545C13.9593 14.6585 13.9593 14.3425 14.1543 14.1465C14.3493 13.9515 14.6663 13.9515 14.8613 14.1465L17.2365 16.5216L18.6577 15.1004C18.7358 15.0223 18.8624 15.0223 18.9406 15.1004C18.9781 15.1379 18.9991 15.1888 18.9991 15.2418L18.9991 19.0016L15.2393 19.0016C15.1288 19.0016 15.0393 18.9121 15.0393 18.8016C15.0393 18.7486 15.0604 18.6977 15.0979 18.6602L16.5295 17.2286L14.1553 14.8545Z" clip-rule="evenodd" fill-rule="evenodd" fill="currentColor" fill-opacity="1"/>
</svg>
