<svg width="42.000000" height="42.000000" viewBox="0 0 42 42" fill="none" xmlns="http://www.w3.org/2000/svg" xmlns:xlink="http://www.w3.org/1999/xlink">
	<desc>
			Created with Pixso.
	</desc>
	<defs/>
	<rect id="Rectangle-2-Copy-52" x="0.500000" y="0.500000" width="41.000000" height="41.000000" stroke="currentColor" stroke-opacity="1.000000" stroke-width="1.000000"/>
	<path id="Combined-Shape" d="M21.8571 3L39 3L39 20.1429L21.8571 20.1429L21.8571 3ZM20.1429 3L3 3L3 39L20.1429 39L20.1429 3ZM39 39L21.8571 39L21.8571 21.8572L39 21.8572L39 39Z" clip-rule="evenodd" fill="currentColor" fill-opacity="1.000000" fill-rule="evenodd"/>
	<path id="3" d="M20.39 29.38C18.74 29.38 17.54 28.92 16.79 28.01C16.05 27.11 15.67 26 15.67 24.7L17.51 24.7C17.59 25.6 17.76 26.26 18.02 26.67C18.47 27.41 19.3 27.77 20.49 27.77C21.41 27.77 22.15 27.53 22.71 27.03C23.27 26.54 23.55 25.9 23.55 25.12C23.55 24.15 23.26 23.48 22.67 23.1C22.08 22.71 21.26 22.52 20.21 22.52C20.1 22.52 19.98 22.52 19.86 22.53C19.74 22.53 19.62 22.53 19.49 22.54L19.49 20.99C19.67 21.01 19.83 21.02 19.95 21.03C20.07 21.03 20.21 21.04 20.35 21.04C21.01 21.04 21.55 20.93 21.97 20.72C22.71 20.36 23.09 19.71 23.09 18.77C23.09 18.07 22.84 17.54 22.34 17.16C21.85 16.78 21.27 16.59 20.61 16.59C19.44 16.59 18.63 16.98 18.18 17.76C17.94 18.19 17.8 18.81 17.76 19.6L16.03 19.6C16.03 18.56 16.23 17.67 16.65 16.94C17.37 15.64 18.63 14.99 20.43 14.99C21.86 14.99 22.96 15.31 23.74 15.94C24.52 16.58 24.91 17.5 24.91 18.7C24.91 19.56 24.68 20.26 24.22 20.79C23.93 21.12 23.56 21.38 23.11 21.57C23.84 21.78 24.42 22.16 24.83 22.74C25.24 23.32 25.45 24.02 25.45 24.85C25.45 26.19 25.01 27.28 24.13 28.12C23.25 28.96 22 29.38 20.39 29.38Z" fill="#000000" fill-opacity="1.000000" fill-rule="evenodd"/>
	<path id="3" d="M20.39 29.38C18.74 29.38 17.54 28.92 16.79 28.01C16.05 27.11 15.67 26 15.67 24.7L17.51 24.7C17.59 25.6 17.76 26.26 18.02 26.67C18.47 27.41 19.3 27.77 20.49 27.77C21.41 27.77 22.15 27.53 22.71 27.03C23.27 26.54 23.55 25.9 23.55 25.12C23.55 24.15 23.26 23.48 22.67 23.1C22.08 22.71 21.26 22.52 20.21 22.52C20.1 22.52 19.98 22.52 19.86 22.53C19.74 22.53 19.62 22.53 19.49 22.54L19.49 20.99C19.67 21.01 19.83 21.02 19.95 21.03C20.07 21.03 20.21 21.04 20.35 21.04C21.01 21.04 21.55 20.93 21.97 20.72C22.71 20.36 23.09 19.71 23.09 18.77C23.09 18.07 22.84 17.54 22.34 17.16C21.85 16.78 21.27 16.59 20.61 16.59C19.44 16.59 18.63 16.98 18.18 17.76C17.94 18.19 17.8 18.81 17.76 19.6L16.03 19.6C16.03 18.56 16.23 17.67 16.65 16.94C17.37 15.64 18.63 14.99 20.43 14.99C21.86 14.99 22.96 15.31 23.74 15.94C24.52 16.58 24.91 17.5 24.91 18.7C24.91 19.56 24.68 20.26 24.22 20.79C23.93 21.12 23.56 21.38 23.11 21.57C23.84 21.78 24.42 22.16 24.83 22.74C25.24 23.32 25.45 24.02 25.45 24.85C25.45 26.19 25.01 27.28 24.13 28.12C23.25 28.96 22 29.38 20.39 29.38Z" fill="#333333" fill-opacity="1.000000" fill-rule="evenodd"/>
</svg>
