<svg width="42.000000" height="42.000000" viewBox="0 0 42 42" fill="none" xmlns="http://www.w3.org/2000/svg" xmlns:xlink="http://www.w3.org/1999/xlink">
	<desc>
			Created with Pixso.
	</desc>
	<defs/>
	<rect id="Rectangle-2-Copy-50" x="0.500000" y="0.500000" width="41.000000" height="41.000000" stroke="currentColor" stroke-opacity="1.000000" stroke-width="1.000000"/>
	<path id="Combined-Shape" d="M31.4572 25.6285L25.6286 25.6285L25.6286 31.4572L31.4572 31.4572L31.4572 25.6285ZM33.1714 25.6285L33.1714 31.4572L39 31.4572L39 25.6285L33.1714 25.6285ZM31.4572 38.9999L31.4572 33.1714L25.6286 33.1714L25.6286 38.9999L31.4572 38.9999ZM33.1714 38.9999L39 38.9999L39 33.1714L33.1714 33.1714L33.1714 38.9999ZM31.4572 18.0857L25.6286 18.0857L25.6286 23.9143L31.4572 23.9143L31.4572 18.0857ZM33.1714 18.0857L33.1714 23.9143L39 23.9143L39 18.0857L33.1714 18.0857ZM31.4572 16.3714L31.4572 10.5428L25.6286 10.5428L25.6286 16.3714L31.4572 16.3714ZM33.1714 16.3714L39 16.3714L39 10.5428L33.1714 10.5428L33.1714 16.3714ZM31.4572 8.82855L31.4572 3L25.6286 3L25.6286 8.82855L31.4572 8.82855ZM33.1714 8.82855L39 8.82855L39 3L33.1714 3L33.1714 8.82855ZM23.9143 25.6285L18.0857 25.6285L18.0857 31.4572L23.9143 31.4572L23.9143 25.6285ZM23.9143 38.9999L23.9143 33.1714L18.0857 33.1714L18.0857 38.9999L23.9143 38.9999ZM23.9143 3L3 3L3 23.9143L23.9143 23.9143L23.9143 3ZM16.3714 25.6285L10.5429 25.6285L10.5429 31.4572L16.3714 31.4572L16.3714 25.6285ZM16.3714 38.9999L16.3714 33.1714L10.5429 33.1714L10.5429 38.9999L16.3714 38.9999ZM8.82858 25.6285L3.00002 25.6285L3.00002 31.4572L8.82858 31.4572L8.82858 25.6285ZM8.82858 38.9999L8.82858 33.1714L3.00002 33.1714L3.00002 38.9999L8.82858 38.9999Z" clip-rule="evenodd" fill="currentColor" fill-opacity="1.000000" fill-rule="evenodd"/>
	<path id="17" d="M11.3141 19.0977L11.3141 17.75C12.5836 17.6263 13.469 17.4196 13.9703 17.1299C14.4716 16.8401 14.846 16.155 15.0934 15.0742L16.4801 15.0742L16.4801 29L14.6051 29L14.6051 19.0977L11.3141 19.0977ZM30.982 16.7832L30.982 15.25L21.2555 15.25L21.2555 17.0176L28.9898 17.0176C28.0068 18.1439 27.0693 19.4818 26.1773 21.0312C24.6669 23.6745 23.6904 26.3307 23.2477 29L25.191 29C25.4905 27.5677 25.7346 26.5293 25.9234 25.8848C26.2164 24.8821 26.6461 23.7722 27.2125 22.5547C27.7854 21.3047 28.4446 20.1393 29.19 19.0586C29.9355 17.9778 30.5328 17.2194 30.982 16.7832Z" clip-rule="evenodd" fill="#000000" fill-opacity="1.000000" fill-rule="evenodd"/>
	<path id="17" d="M11.3141 19.0977L11.3141 17.75C12.5836 17.6263 13.469 17.4196 13.9703 17.1299C14.4716 16.8401 14.846 16.155 15.0934 15.0742L16.4801 15.0742L16.4801 29L14.6051 29L14.6051 19.0977L11.3141 19.0977ZM30.982 16.7832L30.982 15.25L21.2555 15.25L21.2555 17.0176L28.9898 17.0176C28.0068 18.1439 27.0693 19.4818 26.1773 21.0312C24.6669 23.6745 23.6904 26.3307 23.2477 29L25.191 29C25.4905 27.5677 25.7346 26.5293 25.9234 25.8848C26.2164 24.8821 26.6461 23.7722 27.2125 22.5547C27.7854 21.3047 28.4446 20.1393 29.19 19.0586C29.9355 17.9778 30.5328 17.2194 30.982 16.7832Z" clip-rule="evenodd" fill="#333333" fill-opacity="1.000000" fill-rule="evenodd"/>
</svg>
