<svg width="42.000000" height="42.000000" viewBox="0 0 42 42" fill="none" xmlns="http://www.w3.org/2000/svg" xmlns:xlink="http://www.w3.org/1999/xlink">
	<desc>
			Created with Pixso.
	</desc>
	<defs/>
	<rect id="Rectangle-2-Copy-47" x="0.500000" y="0.500000" width="41.000000" height="41.000000" stroke="currentColor" stroke-opacity="1.000000" stroke-width="1.000000"/>
	<path id="Combined-Shape" d="M39 31.4572L33.1714 31.4572L33.1714 25.6285L39 25.6285L39 31.4572ZM39 33.1714L39 39L33.1714 39L33.1714 33.1714L39 33.1714ZM25.6286 33.1714L31.4572 33.1714L31.4572 39L25.6286 39L25.6286 33.1714ZM23.9143 33.1714L23.9143 39L18.0857 39L18.0857 33.1714L23.9143 33.1714ZM16.3715 33.1714L16.3715 39L10.5429 39L10.5429 33.1714L16.3715 33.1714ZM8.82858 33.1714L8.82858 39L3 39L3 33.1714L8.82858 33.1714ZM3 31.4572L3 3L31.4572 3L31.4572 31.4572L3 31.4572ZM39 23.9143L33.1714 23.9143L33.1714 18.0857L39 18.0857L39 23.9143ZM39 16.3715L33.1714 16.3715L33.1714 10.5428L39 10.5428L39 16.3715ZM39 8.82861L33.1714 8.82861L33.1714 3L39 3L39 8.82861Z" clip-rule="evenodd" fill="currentColor" fill-opacity="1.000000" fill-rule="evenodd"/>
	<path id="10" d="M25.9332 15.0156C27.7431 15.0156 29.0517 15.761 29.859 17.252C30.484 18.4043 30.7965 19.983 30.7965 21.9883C30.7965 23.8893 30.5133 25.4616 29.9469 26.7051C29.1266 28.489 27.7854 29.3809 25.9234 29.3809C24.2437 29.3809 22.9937 28.6517 22.1734 27.1934C21.4898 25.9759 21.148 24.3418 21.148 22.291C21.148 20.7025 21.3531 19.3386 21.7633 18.1992C22.5315 16.0768 23.9215 15.0156 25.9332 15.0156ZM11.3141 17.75L11.3141 19.0977L14.6051 19.0977L14.6051 29L16.4801 29L16.4801 15.0742L15.0934 15.0742C14.8459 16.155 14.4716 16.8401 13.9703 17.1299C13.469 17.4196 12.5836 17.6263 11.3141 17.75ZM28.0914 26.5684C27.551 27.3757 26.8251 27.7793 25.9137 27.7793C24.7809 27.7793 23.9801 27.1185 23.5113 25.7969C23.2053 24.931 23.0523 23.7852 23.0523 22.3594C23.0523 20.4648 23.2916 19.0309 23.7701 18.0576C24.2486 17.0843 25.0055 16.5977 26.0406 16.5977C27.1669 16.5977 27.9254 17.1104 28.316 18.1357C28.7066 19.1611 28.9019 20.4681 28.9019 22.0566C28.9019 24.2572 28.6318 25.761 28.0914 26.5684Z" clip-rule="evenodd" fill="#000000" fill-opacity="1.000000" fill-rule="evenodd"/>
	<path id="10" d="M25.9332 15.0156C27.7431 15.0156 29.0517 15.761 29.859 17.252C30.484 18.4043 30.7965 19.983 30.7965 21.9883C30.7965 23.8893 30.5133 25.4616 29.9469 26.7051C29.1266 28.489 27.7854 29.3809 25.9234 29.3809C24.2437 29.3809 22.9937 28.6517 22.1734 27.1934C21.4898 25.9759 21.148 24.3418 21.148 22.291C21.148 20.7025 21.3531 19.3386 21.7633 18.1992C22.5315 16.0768 23.9215 15.0156 25.9332 15.0156ZM11.3141 17.75L11.3141 19.0977L14.6051 19.0977L14.6051 29L16.4801 29L16.4801 15.0742L15.0934 15.0742C14.8459 16.155 14.4716 16.8401 13.9703 17.1299C13.469 17.4196 12.5836 17.6263 11.3141 17.75ZM28.0914 26.5684C27.551 27.3757 26.8251 27.7793 25.9137 27.7793C24.7809 27.7793 23.9801 27.1185 23.5113 25.7969C23.2053 24.931 23.0523 23.7852 23.0523 22.3594C23.0523 20.4648 23.2916 19.0309 23.7701 18.0576C24.2486 17.0843 25.0055 16.5977 26.0406 16.5977C27.1669 16.5977 27.9254 17.1104 28.316 18.1357C28.7066 19.1611 28.9019 20.4681 28.9019 22.0566C28.9019 24.2572 28.6318 25.761 28.0914 26.5684Z" clip-rule="evenodd" fill="#333333" fill-opacity="1.000000" fill-rule="evenodd"/>
</svg>
