<svg width="24.000000" height="24.000000" viewBox="0 0 24 24" fill="none" xmlns="http://www.w3.org/2000/svg" xmlns:xlink="http://www.w3.org/1999/xlink">
	<desc>
			Created with Pixso.
	</desc>
	<defs/>
	<path id="icon" d="M11.5 4C10.119 4 9 5.1189 9 6.5L9 12.5C9 13.8811 10.119 15 11.5 15C12.881 15 14 13.8811 14 12.5L14 6.5C14 5.1189 12.881 4 11.5 4ZM11.5 5C12.327 5 13 5.6731 13 6.5L13 12.5C13 13.3269 12.327 14 11.5 14C10.673 14 10 13.3269 10 12.5L10 6.5C10 5.6731 10.673 5 11.5 5ZM15 11C15 10.7241 15.224 10.5 15.5 10.5C15.776 10.5 16 10.7241 16 11L16 12.5C16 14.8149 14.247 16.698 12 16.95L12 19L13.5 19C13.776 19 14 19.2241 14 19.5C14 19.7759 13.776 20 13.5 20L9.5 20C9.224 20 9 19.7759 9 19.5C9 19.2241 9.224 19 9.5 19L11 19L11 16.95C8.753 16.698 7 14.814 7 12.5L7 11C7 10.7241 7.224 10.5 7.5 10.5C7.776 10.5 8 10.7241 8 11L8 12.5C8 14.4331 9.567 16 11.5 16C13.433 16 15 14.4331 15 12.5L15 11Z" clip-rule="evenodd" fill-rule="evenodd" fill="currentColor" fill-opacity="1"/>
</svg>
