<svg width="24.000000" height="24.000000" viewBox="0 0 24 24" fill="none" xmlns="http://www.w3.org/2000/svg" xmlns:xlink="http://www.w3.org/1999/xlink">
	<desc>
			Created with Pixso.
	</desc>
	<defs/>
	<rect id="矩形" width="24.000000" height="24.000000" fill="#D8D8D8" fill-opacity="0"/>
	<rect id="矩形" x="0.500000" y="0.500000" width="23.000000" height="23.000000" stroke="#979797" stroke-opacity="0" stroke-width="1.000000"/>
	<path id="Path" d="M16.14 18.85L12 14.7L7.85 18.85C7.71 18.99 7.49 19.03 7.3 18.96C7.12 18.88 7 18.7 7 18.5L7 5L17 5L17 18.5C17 18.7 16.87 18.88 16.69 18.96C16.5 19.03 16.28 18.99 16.14 18.85Z" fill="currentColor" fill-opacity="1.000000" fill-rule="evenodd"/>
	<path id="Path" d="M16 17.29L16 6L8 6L8 17.29L11.64 13.64C11.84 13.45 12.15 13.45 12.35 13.64L16 17.29Z" fill="currentColor" fill-opacity="1.000000" fill-rule="evenodd"/>
</svg>
