<svg width="24.000000" height="24.000000" viewBox="0 0 24 24" fill="none" xmlns="http://www.w3.org/2000/svg" xmlns:xlink="http://www.w3.org/1999/xlink">
	<desc>
			Created with Pixso.
	</desc>
	<defs/>
	<path id="icon" d="M9 5.5C9 5.77502 9.22498 6 9.5 6L14.5 6C14.775 6 15 5.77502 15 5.5C15 5.22498 14.775 5 14.5 5L9.5 5C9.22498 5 9 5.22498 9 5.5ZM18 7.5C18 7.22498 17.775 7 17.5 7L6.5 7C6.22498 7 6 7.22498 6 7.5C6 7.77502 6.22498 8 6.5 8L7 8L7 18C7 18.552 7.448 19 8 19L16 19C16.552 19 17 18.552 17 18L17 8L17.5 8C17.775 8 18 7.77502 18 7.5ZM16 18L16 8L8 8L8 18L16 18ZM10 16.5C10 16.775 10.225 17 10.5 17C10.775 17 11 16.775 11 16.5L11 9.5C11 9.22498 10.775 9 10.5 9C10.225 9 10 9.22498 10 9.5L10 16.5ZM13.5 17C13.225 17 13 16.775 13 16.5L13 9.5C13 9.22498 13.225 9 13.5 9C13.775 9 14 9.22498 14 9.5L14 16.5C14 16.775 13.775 17 13.5 17Z" clip-rule="evenodd" fill-rule="evenodd" fill="currentColor" fill-opacity="1"/>
</svg>
