<svg width="24.000000" height="24.000000" viewBox="0 0 24 24" fill="none" xmlns="http://www.w3.org/2000/svg" xmlns:xlink="http://www.w3.org/1999/xlink">
	<desc>
			Created with Pixso.
	</desc>
	<defs/>
	<path id="icon" d="M5.50098 5.00037C5.08032 5.00037 4.84772 5.48816 5.11249 5.81506L10.001 11.8501L10.001 17.401C10.001 17.5441 10.0623 17.6803 10.1694 17.7753L12.1694 19.5472C12.4921 19.8331 13.001 19.604 13.001 19.173L13.001 11.8501L17.8895 5.81506C18.1543 5.48816 17.9217 5.00037 17.501 5.00037L5.50098 5.00037ZM10.8893 11.3586C10.9615 11.4476 11.0008 11.5587 11.0008 11.6733L11.0008 17.1763L12.0008 18.0624L12.0008 11.6733C12.0008 11.5587 12.0402 11.4476 12.1123 11.3586L16.4523 6.00073L6.54932 6.00073L10.8893 11.3586Z" clip-rule="evenodd" fill-rule="evenodd" fill="currentColor" fill-opacity="1"/>
</svg>
