<svg width="24.000000" height="24.000000" viewBox="0 0 24 24" fill="none" xmlns="http://www.w3.org/2000/svg" xmlns:xlink="http://www.w3.org/1999/xlink">
	<desc>
			Created with Pixso.
	</desc>
	<defs/>
	<path id="形状结合" d="M20 7.5C19.9969 7.47101 19.9911 7.44238 19.9827 7.41449C19.9808 7.38403 19.976 7.35376 19.9683 7.32422L19.9627 7.31525C19.9473 7.2832 19.9285 7.25293 19.9066 7.22498C19.892 7.19861 19.8752 7.17358 19.8562 7.15021C19.8043 7.11249 19.7514 7.07611 19.6975 7.04126C19.6859 7.03625 19.6722 7.0365 19.6602 7.03235C19.611 7.01367 19.5591 7.00323 19.5066 7.00134L19.5 7C19.4418 7.01257 19.3831 7.02338 19.3242 7.03223L16 8.27881L16 7C16 6.44769 15.5523 6 15 6L4 6C3.44769 6 3 6.44769 3 7L3 17C3 17.5523 3.44769 18 4 18L15 18C15.5523 18 16 17.5523 16 17L16 15.7212L19.3242 16.9678C19.4656 17.0234 19.6252 17.0064 19.7516 16.9222C19.7686 16.9124 19.7847 16.9015 19.8002 16.8895C19.8724 16.8366 19.9288 16.7649 19.9632 16.6822L19.9683 16.6758C19.9765 16.6168 19.9871 16.5582 20 16.5L20 7.5ZM15.5 14.5C15.5582 14.5128 15.6168 14.5235 15.6758 14.5322L19 15.7788L19 8.22119L15.6758 9.46777C15.5345 9.52338 15.3749 9.50641 15.2485 9.4223C15.2316 9.41241 15.2153 9.40143 15.1998 9.38947C15.1276 9.33655 15.0712 9.26489 15.0368 9.18219L15.0317 9.17578C15.024 9.14624 15.0192 9.11609 15.0173 9.08563C15.0089 9.05768 15.0031 9.02899 15 9L15 7L4 7L4 17L15 17L15 15C15.0129 14.9418 15.0235 14.8832 15.0317 14.8242L15.0373 14.8153C15.0529 14.7825 15.0722 14.7516 15.0948 14.7231C15.1088 14.6977 15.1251 14.6736 15.1433 14.6511C15.2079 14.6004 15.2795 14.5593 15.3558 14.5291C15.3996 14.5135 15.4454 14.5042 15.4918 14.5016L15.5 14.5ZM5.5 8L8.5 8C8.77612 8 9 8.22388 9 8.5C9 8.77612 8.77612 9 8.5 9L5.5 9C5.22388 9 5 8.77612 5 8.5C5 8.22388 5.22388 8 5.5 8Z" clip-rule="evenodd" fill-rule="evenodd" fill="currentColor" fill-opacity="1.000000"/>
</svg>
