<svg width="24.000000" height="24.000000" viewBox="0 0 24 24" fill="none" xmlns="http://www.w3.org/2000/svg" xmlns:xlink="http://www.w3.org/1999/xlink">
	<desc>
			Created with Pixso.
	</desc>
	<defs/>
	<path id="icon" d="M17.3077 11.9896L5.5 11.9896C5.22385 11.9896 5 11.7638 5 11.4851C5 11.2063 5.22385 10.9805 5.5 10.9805L17.2781 10.9805L13.1968 6.86145C13.0016 6.66431 13.0016 6.34485 13.1968 6.14783C13.3921 5.95068 13.7087 5.95068 13.9039 6.14783L18.8535 11.1432C19.0488 11.3402 19.0488 11.6598 18.8535 11.8568L13.9039 16.8522C13.7087 17.0493 13.3921 17.0493 13.1968 16.8522C13.0016 16.6552 13.0016 16.3357 13.1968 16.1385L17.3077 11.9896L17.3077 11.9896Z" fill-rule="evenodd" fill="currentColor" fill-opacity="1"/>
</svg>
