<svg width="24.000000" height="24.000000" viewBox="0 0 24 24" fill="none" xmlns="http://www.w3.org/2000/svg" xmlns:xlink="http://www.w3.org/1999/xlink">
	<desc>
			Created with Pixso.
	</desc>
	<defs/>
	<path id="icon" d="M16.0021 5.99988L18.0021 5.99988C18.2723 5.98206 18.5372 6.08154 18.7288 6.27319C18.9203 6.46472 19.02 6.72961 19.0021 6.99988L19.0021 17.9999C19.02 18.2701 18.9203 18.535 18.7288 18.7266C18.5372 18.9182 18.2723 19.0177 18.0021 18.9999L6.00208 18.9999C5.73175 19.0177 5.46686 18.9182 5.27533 18.7266C5.0838 18.535 4.98419 18.2701 5.00208 17.9999L5.00208 6.99988C4.98419 6.72961 5.0838 6.46472 5.27533 6.27319C5.46686 6.08154 5.73175 5.98206 6.00208 5.99988L8.00208 5.99988L8.00208 5.49988C8.00208 5.22375 8.22589 4.99988 8.50208 4.99988C8.7782 4.99988 9.00208 5.22375 9.00208 5.49988L9.00208 5.99988L15.0021 5.99988L15.0021 5.49988C15.0021 5.22375 15.2259 4.99988 15.5021 4.99988C15.7782 4.99988 16.0021 5.22375 16.0021 5.49988L16.0021 5.99988ZM6.00208 6.99988L6.00208 9.99988L18.0021 9.99988L18.0021 6.99988L16.0021 6.99988L16.0021 7.49988C16.0021 7.77612 15.7782 7.99988 15.5021 7.99988C15.2259 7.99988 15.0021 7.77612 15.0021 7.49988L15.0021 6.99988L9.00208 6.99988L9.00208 7.49988C9.00208 7.77612 8.7782 7.99988 8.50208 7.99988C8.22589 7.99988 8.00208 7.77612 8.00208 7.49988L8.00208 6.99988L6.00208 6.99988ZM18.0021 17.9999L6.00208 17.9999L6.00208 10.9999L18.0021 10.9999L18.0021 17.9999Z" clip-rule="evenodd" fill-rule="evenodd" fill="currentColor" fill-opacity="1"/>
</svg>
