<svg width="24.000000" height="24.000000" viewBox="0 0 24 24" fill="none" xmlns="http://www.w3.org/2000/svg" xmlns:xlink="http://www.w3.org/1999/xlink">
	<desc>
			Created with Pixso.
	</desc>
	<defs/>
	<mask id="mask_370_4354" fill="white">
		<path id="color" d="M7.84619 16.5605C8.40088 17.0352 9.04297 17.4104 9.74536 17.6586L9.74536 19.5C9.74536 19.7761 9.96924 20 10.2454 20L13.2454 20C13.5215 20 13.7454 19.7761 13.7454 19.5L13.7454 17.6586C14.4475 17.4104 15.0898 17.0352 15.6443 16.5605L17.2405 17.4821C17.4795 17.6201 17.7854 17.5382 17.9236 17.2991L19.4236 14.7009C19.5615 14.4618 19.4795 14.156 19.2405 14.0179L17.6453 13.0969C17.7109 12.7413 17.7454 12.3746 17.7454 12C17.7454 11.6254 17.7109 11.2587 17.6453 10.9031L19.2405 9.98206C19.4795 9.84399 19.5615 9.53821 19.4236 9.29907L17.9236 6.70093C17.7854 6.46179 17.4795 6.37988 17.2405 6.51794L15.6443 7.43945C15.0898 6.96484 14.4475 6.5896 13.7454 6.34143L13.7454 4.5C13.7454 4.22388 13.5215 4 13.2454 4L10.2454 4C9.96924 4 9.74536 4.22388 9.74536 4.5L9.74536 6.34143C9.04297 6.5896 8.40088 6.96484 7.84619 7.43945L6.25 6.51794C6.01099 6.37988 5.70508 6.46179 5.56714 6.70093L4.06714 9.29907C3.92896 9.53821 4.01099 9.84399 4.25 9.98206L5.84521 10.9031C5.77954 11.2587 5.74536 11.6254 5.74536 12C5.74536 12.3746 5.77954 12.7413 5.84521 13.0969L4.25 14.0179C4.01099 14.156 3.92896 14.4618 4.06714 14.7009L5.56714 17.2991C5.70508 17.5382 6.01099 17.6201 6.25 17.4821L7.84619 16.5605ZM7.00146 10.4159C6.89209 10.7437 6.81567 11.0864 6.77612 11.4406C6.75586 11.6241 6.74536 11.8109 6.74536 12C6.74536 12.1891 6.75586 12.3759 6.77612 12.5594C6.81567 12.9136 6.89209 13.2563 7.00146 13.5841L5.18311 14.634L6.18311 16.366L8.00269 15.3156C8.23486 15.5775 8.49414 15.8151 8.77637 16.0236C9.07544 16.2446 9.40015 16.4332 9.74536 16.584C10.0627 16.7227 10.3975 16.8293 10.7454 16.9L10.7454 19L12.7454 19L12.7454 16.9C13.093 16.8293 13.4277 16.7227 13.7454 16.584C14.0903 16.4332 14.415 16.2446 14.7141 16.0236C14.9963 15.8151 15.2556 15.5775 15.488 15.3156L17.3074 16.366L18.3074 14.634L16.489 13.5841C16.5986 13.2563 16.6748 12.9136 16.7144 12.5594C16.7349 12.3759 16.7454 12.1891 16.7454 12C16.7454 11.8109 16.7349 11.6241 16.7144 11.4406C16.6748 11.0864 16.5986 10.7437 16.489 10.4159L18.3074 9.36597L17.3074 7.63403L15.488 8.68445C15.2556 8.42249 14.9963 8.18494 14.7141 7.97644C14.415 7.75537 14.0903 7.56677 13.7454 7.41602C13.4277 7.27734 13.093 7.17065 12.7454 7.09998L12.7454 5L10.7454 5L10.7454 7.09998C10.3975 7.17065 10.0627 7.27734 9.74536 7.41602C9.40015 7.56677 9.07544 7.75537 8.77637 7.97644C8.49414 8.18494 8.23486 8.42249 8.00269 8.68445L6.18311 7.63403L5.18311 9.36597L7.00146 10.4159ZM11.7454 15C10.0884 15 8.74536 13.6569 8.74536 12C8.74536 10.3431 10.0884 9 11.7454 9C13.4021 9 14.7454 10.3431 14.7454 12C14.7454 13.6569 13.4021 15 11.7454 15ZM13.7454 12C13.7454 13.1046 12.8499 14 11.7454 14C10.6406 14 9.74536 13.1046 9.74536 12C9.74536 10.8954 10.6406 10 11.7454 10C12.8499 10 13.7454 10.8954 13.7454 12Z" clip-rule="evenodd" fill="" fill-opacity="1.000000" fill-rule="evenodd"/>
	</mask>
	<path id="color" d="M7.84619 16.5605C8.40088 17.0352 9.04297 17.4104 9.74536 17.6586L9.74536 19.5C9.74536 19.7761 9.96924 20 10.2454 20L13.2454 20C13.5215 20 13.7454 19.7761 13.7454 19.5L13.7454 17.6586C14.4475 17.4104 15.0898 17.0352 15.6443 16.5605L17.2405 17.4821C17.4795 17.6201 17.7854 17.5382 17.9236 17.2991L19.4236 14.7009C19.5615 14.4618 19.4795 14.156 19.2405 14.0179L17.6453 13.0969C17.7109 12.7413 17.7454 12.3746 17.7454 12C17.7454 11.6254 17.7109 11.2587 17.6453 10.9031L19.2405 9.98206C19.4795 9.84399 19.5615 9.53821 19.4236 9.29907L17.9236 6.70093C17.7854 6.46179 17.4795 6.37988 17.2405 6.51794L15.6443 7.43945C15.0898 6.96484 14.4475 6.5896 13.7454 6.34143L13.7454 4.5C13.7454 4.22388 13.5215 4 13.2454 4L10.2454 4C9.96924 4 9.74536 4.22388 9.74536 4.5L9.74536 6.34143C9.04297 6.5896 8.40088 6.96484 7.84619 7.43945L6.25 6.51794C6.01099 6.37988 5.70508 6.46179 5.56714 6.70093L4.06714 9.29907C3.92896 9.53821 4.01099 9.84399 4.25 9.98206L5.84521 10.9031C5.77954 11.2587 5.74536 11.6254 5.74536 12C5.74536 12.3746 5.77954 12.7413 5.84521 13.0969L4.25 14.0179C4.01099 14.156 3.92896 14.4618 4.06714 14.7009L5.56714 17.2991C5.70508 17.5382 6.01099 17.6201 6.25 17.4821L7.84619 16.5605ZM7.00146 10.4159C6.89209 10.7437 6.81567 11.0864 6.77612 11.4406C6.75586 11.6241 6.74536 11.8109 6.74536 12C6.74536 12.1891 6.75586 12.3759 6.77612 12.5594C6.81567 12.9136 6.89209 13.2563 7.00146 13.5841L5.18311 14.634L6.18311 16.366L8.00269 15.3156C8.23486 15.5775 8.49414 15.8151 8.77637 16.0236C9.07544 16.2446 9.40015 16.4332 9.74536 16.584C10.0627 16.7227 10.3975 16.8293 10.7454 16.9L10.7454 19L12.7454 19L12.7454 16.9C13.093 16.8293 13.4277 16.7227 13.7454 16.584C14.0903 16.4332 14.415 16.2446 14.7141 16.0236C14.9963 15.8151 15.2556 15.5775 15.488 15.3156L17.3074 16.366L18.3074 14.634L16.489 13.5841C16.5986 13.2563 16.6748 12.9136 16.7144 12.5594C16.7349 12.3759 16.7454 12.1891 16.7454 12C16.7454 11.8109 16.7349 11.6241 16.7144 11.4406C16.6748 11.0864 16.5986 10.7437 16.489 10.4159L18.3074 9.36597L17.3074 7.63403L15.488 8.68445C15.2556 8.42249 14.9963 8.18494 14.7141 7.97644C14.415 7.75537 14.0903 7.56677 13.7454 7.41602C13.4277 7.27734 13.093 7.17065 12.7454 7.09998L12.7454 5L10.7454 5L10.7454 7.09998C10.3975 7.17065 10.0627 7.27734 9.74536 7.41602C9.40015 7.56677 9.07544 7.75537 8.77637 7.97644C8.49414 8.18494 8.23486 8.42249 8.00269 8.68445L6.18311 7.63403L5.18311 9.36597L7.00146 10.4159ZM11.7454 15C10.0884 15 8.74536 13.6569 8.74536 12C8.74536 10.3431 10.0884 9 11.7454 9C13.4021 9 14.7454 10.3431 14.7454 12C14.7454 13.6569 13.4021 15 11.7454 15ZM13.7454 12C13.7454 13.1046 12.8499 14 11.7454 14C10.6406 14 9.74536 13.1046 9.74536 12C9.74536 10.8954 10.6406 10 11.7454 10C12.8499 10 13.7454 10.8954 13.7454 12Z" clip-rule="evenodd" fill="currentColor" fill-opacity="1.000000" fill-rule="evenodd" mask="url(#mask_370_4354)"/>
	<path id="color" d="" clip-rule="evenodd" fill="#979797" fill-opacity="0.000000" fill-rule="evenodd"/>
</svg>
