<svg width="24.000000" height="24.000000" viewBox="0 0 24 24" fill="none" xmlns="http://www.w3.org/2000/svg" xmlns:xlink="http://www.w3.org/1999/xlink">
	<desc>
			Created with Pixso.
	</desc>
	<defs/>
	<path id="Color" d="M12 6.51538L12 9.87866L13 10.8787L13 5.5L12.9918 5.5C12.995 5.39062 12.9614 5.28345 12.8965 5.19531C12.7278 4.97705 12.4145 4.93604 12.1953 5.10352L9.38586 7.26465L10.099 7.97778L12 6.51538ZM5.15 5.15015C5.34385 4.9563 5.65765 4.95459 5.85345 5.14648L18.8534 18.1465C19.0453 18.3423 19.0437 18.656 18.8499 18.8499C18.656 19.0437 18.3422 19.0454 18.1464 18.8535L5.14645 5.85352C4.95457 5.65771 4.95615 5.34399 5.15 5.15015ZM17.9908 15.8694C18.6501 14.686 18.9974 13.3545 19 12C19.0005 9.64575 17.9642 7.41089 16.167 5.89062C16.0304 5.77515 15.9658 5.5957 15.9977 5.41968C16.0295 5.2439 16.153 5.09839 16.3214 5.03833C16.4898 4.97827 16.6775 5.0127 16.8135 5.12891C20.1739 7.97144 20.9844 12.8281 18.7293 16.6082L17.9908 15.8694ZM15.7657 13.6445C15.9199 13.1099 15.9988 12.5564 16 12C16.0146 10.4175 15.3735 8.89966 14.229 7.80664C14.0277 7.61816 14.0168 7.30249 14.2047 7.10059C14.3925 6.89868 14.7083 6.88696 14.9107 7.07422C16.2577 8.35693 17.0139 10.1399 17 12C16.9979 12.8311 16.8469 13.655 16.554 14.4329L15.7657 13.6445ZM12 17.4846L7.47009 14L5 14L5 10L7.47009 10L7.70109 9.82227L6.87878 9L5 9C4.44772 9 4 9.44775 4 10L4 14C4 14.5522 4.44772 15 5 15L7.12988 15L12.1953 18.8965C12.4143 19.0647 12.7282 19.0237 12.8965 18.8047C12.9614 18.7166 12.995 18.6094 12.9918 18.5L13 18.5L13 15.1211L12 14.1211L12 17.4846ZM14.2056 16.9131C14.3731 17.0972 14.6533 17.123 14.8518 16.9729L14.1681 16.2893C14.0305 16.4797 14.0462 16.7405 14.2056 16.9131L14.2056 16.9131ZM16.7733 18.8945C16.5656 19.0486 16.2734 19.0132 16.1089 18.8135L16.1089 18.8135C15.9644 18.6406 15.9558 18.3916 16.088 18.2092L16.7733 18.8945Z" clip-rule="evenodd" fill-rule="evenodd" fill="currentColor" fill-opacity="1.000000"/>
	<mask id="mask182_398" mask-type="alpha" maskUnits="userSpaceOnUse" x="4.000000" y="5.000488" width="16.000416" height="13.999513">
		<path id="Color" d="M12 6.51538L12 9.87866L13 10.8787L13 5.5L12.9918 5.5C12.995 5.39062 12.9614 5.28345 12.8965 5.19531C12.7278 4.97705 12.4145 4.93604 12.1953 5.10352L9.38586 7.26465L10.099 7.97778L12 6.51538ZM5.15 5.15015C5.34385 4.9563 5.65765 4.95459 5.85345 5.14648L18.8534 18.1465C19.0453 18.3423 19.0437 18.656 18.8499 18.8499C18.656 19.0437 18.3422 19.0454 18.1464 18.8535L5.14645 5.85352C4.95457 5.65771 4.95615 5.34399 5.15 5.15015ZM17.9908 15.8694C18.6501 14.686 18.9974 13.3545 19 12C19.0005 9.64575 17.9642 7.41089 16.167 5.89062C16.0304 5.77515 15.9658 5.5957 15.9977 5.41968C16.0295 5.2439 16.153 5.09839 16.3214 5.03833C16.4898 4.97827 16.6775 5.0127 16.8135 5.12891C20.1739 7.97144 20.9844 12.8281 18.7293 16.6082L17.9908 15.8694ZM15.7657 13.6445C15.9199 13.1099 15.9988 12.5564 16 12C16.0146 10.4175 15.3735 8.89966 14.229 7.80664C14.0277 7.61816 14.0168 7.30249 14.2047 7.10059C14.3925 6.89868 14.7083 6.88696 14.9107 7.07422C16.2577 8.35693 17.0139 10.1399 17 12C16.9979 12.8311 16.8469 13.655 16.554 14.4329L15.7657 13.6445ZM12 17.4846L7.47009 14L5 14L5 10L7.47009 10L7.70109 9.82227L6.87878 9L5 9C4.44772 9 4 9.44775 4 10L4 14C4 14.5522 4.44772 15 5 15L7.12988 15L12.1953 18.8965C12.4143 19.0647 12.7282 19.0237 12.8965 18.8047C12.9614 18.7166 12.995 18.6094 12.9918 18.5L13 18.5L13 15.1211L12 14.1211L12 17.4846ZM14.2056 16.9131C14.3731 17.0972 14.6533 17.123 14.8518 16.9729L14.1681 16.2893C14.0305 16.4797 14.0462 16.7405 14.2056 16.9131L14.2056 16.9131ZM16.7733 18.8945C16.5656 19.0486 16.2734 19.0132 16.1089 18.8135L16.1089 18.8135C15.9644 18.6406 15.9558 18.3916 16.088 18.2092L16.7733 18.8945Z" clip-rule="evenodd" fill-rule="evenodd" fill="#C4C4C4" fill-opacity="1.000000"/>
	</mask>
</svg>
