<svg width="24.000000" height="24.000000" viewBox="0 0 24 24" fill="none" xmlns="http://www.w3.org/2000/svg" xmlns:xlink="http://www.w3.org/1999/xlink">
	<desc>
			Created with Pixso.
	</desc>
	<defs/>
	<path id="Color" d="M12.1953 5.10303C12.4145 4.93555 12.7278 4.97656 12.8965 5.19482C12.9614 5.28296 12.995 5.39014 12.9918 5.49951L13 5.49951L13 18.4995L12.9918 18.4995C12.995 18.6089 12.9614 18.7161 12.8965 18.8042C12.7282 19.0232 12.4143 19.0642 12.1953 18.896L7.12988 14.9995L5 14.9995C4.44772 14.9995 4 14.5518 4 13.9995L4 9.99951C4 9.44727 4.44772 8.99951 5 8.99951L7.12988 8.99951L12.1953 5.10303ZM16.8135 5.12842C16.6775 5.01245 16.4898 4.97778 16.3214 5.03784C16.153 5.0979 16.0296 5.24341 15.9977 5.41943C15.9658 5.59521 16.0304 5.7749 16.167 5.89014C17.9638 7.41089 19 9.64551 19 11.9995C19 14.3535 17.9638 16.5881 16.167 18.1089C16.0304 18.2241 15.9658 18.4038 15.9977 18.5796C16.0296 18.7556 16.153 18.9011 16.3214 18.9612C16.4898 19.0212 16.6775 18.9866 16.8135 18.8706C18.8345 17.1604 20 14.647 20 11.9995C20 9.35205 18.8345 6.83862 16.8135 5.12842ZM12 17.4841L7.47009 13.9995L5 13.9995L5 9.99951L7.47009 9.99951L12 6.51489L12 17.4841ZM14.2046 7.1001C14.3925 6.89819 14.7082 6.88647 14.9106 7.07373C16.2457 8.36646 16.9996 10.1453 17 12.0034C17.0003 13.8618 16.2471 15.6409 14.9125 16.9341C14.7114 17.1233 14.3948 17.1138 14.2055 16.9126C14.0162 16.7114 14.0258 16.3948 14.227 16.2056C15.3602 15.1023 15.9996 13.5879 16 12.0063C16.0003 10.4246 15.3617 8.90991 14.229 7.80615C14.0277 7.61768 14.0168 7.302 14.2046 7.1001Z" clip-rule="evenodd" fill-rule="evenodd" fill="currentColor" fill-opacity="1"/>
	<mask id="mask182_429" mask-type="alpha" maskUnits="userSpaceOnUse" x="4.000000" y="5.000000" width="16.000017" height="13.999508">
		<path id="Color" d="M12.1953 5.10303C12.4145 4.93555 12.7278 4.97656 12.8965 5.19482C12.9614 5.28296 12.995 5.39014 12.9918 5.49951L13 5.49951L13 18.4995L12.9918 18.4995C12.995 18.6089 12.9614 18.7161 12.8965 18.8042C12.7282 19.0232 12.4143 19.0642 12.1953 18.896L7.12988 14.9995L5 14.9995C4.44772 14.9995 4 14.5518 4 13.9995L4 9.99951C4 9.44727 4.44772 8.99951 5 8.99951L7.12988 8.99951L12.1953 5.10303ZM16.8135 5.12842C16.6775 5.01245 16.4898 4.97778 16.3214 5.03784C16.153 5.0979 16.0296 5.24341 15.9977 5.41943C15.9658 5.59521 16.0304 5.7749 16.167 5.89014C17.9638 7.41089 19 9.64551 19 11.9995C19 14.3535 17.9638 16.5881 16.167 18.1089C16.0304 18.2241 15.9658 18.4038 15.9977 18.5796C16.0296 18.7556 16.153 18.9011 16.3214 18.9612C16.4898 19.0212 16.6775 18.9866 16.8135 18.8706C18.8345 17.1604 20 14.647 20 11.9995C20 9.35205 18.8345 6.83862 16.8135 5.12842ZM12 17.4841L7.47009 13.9995L5 13.9995L5 9.99951L7.47009 9.99951L12 6.51489L12 17.4841ZM14.2046 7.1001C14.3925 6.89819 14.7082 6.88647 14.9106 7.07373C16.2457 8.36646 16.9996 10.1453 17 12.0034C17.0003 13.8618 16.2471 15.6409 14.9125 16.9341C14.7114 17.1233 14.3948 17.1138 14.2055 16.9126C14.0162 16.7114 14.0258 16.3948 14.227 16.2056C15.3602 15.1023 15.9996 13.5879 16 12.0063C16.0003 10.4246 15.3617 8.90991 14.229 7.80615C14.0277 7.61768 14.0168 7.302 14.2046 7.1001Z" clip-rule="evenodd" fill-rule="evenodd" fill="currentColor" fill-opacity="1"/>
	</mask>
</svg>
