<svg width="24.000000" height="24.000000" viewBox="0 0 24 24" fill="none" xmlns="http://www.w3.org/2000/svg" xmlns:xlink="http://www.w3.org/1999/xlink">
	<desc>
			Created with Pixso.
	</desc>
	<defs/>
	<path id="Color" d="M12.1953 5.10303C12.4145 4.93555 12.7278 4.97656 12.8965 5.19482C12.9614 5.28296 12.995 5.39014 12.9918 5.49951L13 5.49951L13 18.4995L12.9918 18.4995C12.995 18.6089 12.9614 18.7161 12.8965 18.8042C12.7282 19.0232 12.4143 19.0642 12.1953 18.896L7.12988 14.9995L5 14.9995C4.44771 14.9995 4 14.5518 4 13.9995L4 9.99951C4 9.44727 4.44771 8.99951 5 8.99951L7.12988 8.99951L12.1953 5.10303ZM12 17.4841L7.47009 13.9995L5 13.9995L5 9.99951L7.47009 9.99951L12 6.51489L12 17.4841ZM14.2046 7.1001C14.3924 6.89819 14.7082 6.88647 14.9106 7.07373C16.2457 8.36646 16.9995 10.1453 16.9999 12.0034C17.0003 13.8618 16.2471 15.6409 14.9125 16.9341C14.7113 17.1233 14.3947 17.1138 14.2054 16.9126C14.0161 16.7114 14.0257 16.3948 14.2269 16.2056C15.3601 15.1023 15.9995 13.5879 15.9999 12.0063C16.0003 10.4246 15.3616 8.90991 14.2289 7.80615C14.0276 7.61768 14.0167 7.302 14.2046 7.1001Z" clip-rule="evenodd" fill-rule="evenodd" fill="currentColor" fill-opacity="1"/>
</svg>
