<svg width="24.000000" height="24.000000" viewBox="0 0 24 24" fill="none" xmlns="http://www.w3.org/2000/svg" xmlns:xlink="http://www.w3.org/1999/xlink">
	<desc>
			Created with Pixso.
	</desc>
	<defs/>
	<path id="Mask" d="M7 17.5C7 17.6851 7.10199 17.8536 7.26401 17.941C7.33801 17.98 7.41901 18 7.5 18C7.59698 18 7.69299 17.972 7.77701 17.916L17.777 11.9171C17.916 11.8241 18 11.6682 18 11.5012C18 11.3341 17.916 11.1782 17.778 11.0852L7.77802 5.08435C7.62299 4.98132 7.42599 4.97229 7.26401 5.05933C7.10199 5.14636 7 5.31531 7 5.50037L7 17.5ZM7.99982 16.5659L7.99982 6.43506L16.5988 11.501L7.99982 16.5659Z" clip-rule="evenodd" fill-rule="evenodd" fill="currentColor" fill-opacity="1.000000"/>
</svg>
