<svg width="42.000000" height="42.000000" viewBox="0 0 42 42" fill="none" xmlns="http://www.w3.org/2000/svg" xmlns:xlink="http://www.w3.org/1999/xlink">
	<desc>
			Created with Pixso.
	</desc>
	<defs/>
	<rect id="Rectangle-2-Copy-60" x="0.500000" y="0.500000" width="41.000000" height="41.000000" stroke="currentColor" stroke-opacity="1.000000" stroke-width="1.000000"/>
	<path id="Combined-Shape" d="M21.8571 21.8571L39 21.8571L39 29.5713L21.8571 29.5713L21.8571 21.8571ZM20.1429 21.8571L20.1429 29.5713L3 29.5713L3 21.8571L20.1429 21.8571ZM21.8571 38.9999L21.8571 31.2856L39 31.2856L39 38.9999L21.8571 38.9999ZM20.1429 38.9999L3 38.9999L3 31.2856L20.1429 31.2856L20.1429 38.9999ZM21.8571 12.4286L39 12.4286L39 20.1428L21.8571 20.1428L21.8571 12.4286ZM20.1429 12.4286L20.1429 20.1428L3 20.1428L3 12.4286L20.1429 12.4286ZM21.8571 3L39 3L39 10.7142L21.8571 10.7142L21.8571 3ZM20.1429 3L20.1429 10.7142L3 10.7142L3 3L20.1429 3Z" clip-rule="evenodd" fill="currentColor" fill-opacity="1.000000" fill-rule="evenodd"/>
	<path id="8" d="M17.1043 20.8164C17.3777 21.0963 17.7586 21.3405 18.2469 21.5488C17.4526 21.8678 16.8537 22.3285 16.45 22.9307C16.0464 23.5328 15.8445 24.2474 15.8445 25.0742C15.8445 26.4805 16.3149 27.5531 17.2557 28.292C18.1964 29.0309 19.3471 29.4004 20.7078 29.4004C22.2183 29.4004 23.3869 28.9723 24.2137 28.1162C25.0405 27.2601 25.4539 26.2168 25.4539 24.9863C25.4539 23.9447 25.1447 23.0983 24.5262 22.4473C24.1942 22.1022 23.7384 21.7963 23.159 21.5293C23.6798 21.2363 24.0639 20.9369 24.3113 20.6309C24.7541 20.0905 24.9754 19.3842 24.9754 18.5117C24.9754 17.5677 24.5945 16.7426 23.8328 16.0361C23.0711 15.3297 22.0197 14.9766 20.6785 14.9766C19.2918 14.9766 18.2209 15.351 17.4656 16.0996C16.7104 16.8483 16.3328 17.7435 16.3328 18.7852C16.3328 19.6185 16.59 20.2955 17.1043 20.8164ZM20.6395 20.875C21.4142 20.875 22.0197 20.6586 22.4559 20.2256C22.8921 19.7926 23.1102 19.2767 23.1102 18.6777C23.1102 18.1569 22.9018 17.6783 22.4852 17.2422C22.0685 16.806 21.4337 16.5879 20.5809 16.5879C19.7345 16.5879 19.1225 16.806 18.7449 17.2422C18.3673 17.6783 18.1785 18.1895 18.1785 18.7754C18.1785 19.433 18.4227 19.9473 18.9109 20.3184C19.3992 20.6895 19.9754 20.875 20.6395 20.875ZM20.7469 27.7988C21.5607 27.7988 22.2361 27.5791 22.7733 27.1396C23.3104 26.7002 23.5789 26.0443 23.5789 25.1719C23.5789 24.267 23.3022 23.5801 22.7488 23.1113C22.1955 22.6426 21.4858 22.4082 20.6199 22.4082C19.7801 22.4082 19.0949 22.6475 18.5643 23.126C18.0337 23.6045 17.7684 24.267 17.7684 25.1133C17.7684 25.8424 18.0109 26.4723 18.4959 27.0029C18.9809 27.5336 19.7313 27.7988 20.7469 27.7988Z" clip-rule="evenodd" fill="#000000" fill-opacity="1.000000" fill-rule="evenodd"/>
	<path id="8" d="M17.1043 20.8164C17.3777 21.0963 17.7586 21.3405 18.2469 21.5488C17.4526 21.8678 16.8537 22.3285 16.45 22.9307C16.0464 23.5328 15.8445 24.2474 15.8445 25.0742C15.8445 26.4805 16.3149 27.5531 17.2557 28.292C18.1964 29.0309 19.3471 29.4004 20.7078 29.4004C22.2183 29.4004 23.3869 28.9723 24.2137 28.1162C25.0405 27.2601 25.4539 26.2168 25.4539 24.9863C25.4539 23.9447 25.1447 23.0983 24.5262 22.4473C24.1942 22.1022 23.7384 21.7963 23.159 21.5293C23.6798 21.2363 24.0639 20.9369 24.3113 20.6309C24.7541 20.0905 24.9754 19.3842 24.9754 18.5117C24.9754 17.5677 24.5945 16.7426 23.8328 16.0361C23.0711 15.3297 22.0197 14.9766 20.6785 14.9766C19.2918 14.9766 18.2209 15.351 17.4656 16.0996C16.7104 16.8483 16.3328 17.7435 16.3328 18.7852C16.3328 19.6185 16.59 20.2955 17.1043 20.8164ZM20.6395 20.875C21.4142 20.875 22.0197 20.6586 22.4559 20.2256C22.8921 19.7926 23.1102 19.2767 23.1102 18.6777C23.1102 18.1569 22.9018 17.6783 22.4852 17.2422C22.0685 16.806 21.4337 16.5879 20.5809 16.5879C19.7345 16.5879 19.1225 16.806 18.7449 17.2422C18.3673 17.6783 18.1785 18.1895 18.1785 18.7754C18.1785 19.433 18.4227 19.9473 18.9109 20.3184C19.3992 20.6895 19.9754 20.875 20.6395 20.875ZM20.7469 27.7988C21.5607 27.7988 22.2361 27.5791 22.7733 27.1396C23.3104 26.7002 23.5789 26.0443 23.5789 25.1719C23.5789 24.267 23.3022 23.5801 22.7488 23.1113C22.1955 22.6426 21.4858 22.4082 20.6199 22.4082C19.7801 22.4082 19.0949 22.6475 18.5643 23.126C18.0337 23.6045 17.7684 24.267 17.7684 25.1133C17.7684 25.8424 18.0109 26.4723 18.4959 27.0029C18.9809 27.5336 19.7313 27.7988 20.7469 27.7988Z" clip-rule="evenodd" fill="#333333" fill-opacity="1.000000" fill-rule="evenodd"/>
</svg>
